<svg xmlns="http://www.w3.org/2000/svg" width="56" height="78" viewBox="0 0 56 78"><g><g><path fill="none" stroke="#e6c69a" stroke-linecap="round" stroke-linejoin="round" stroke-miterlimit="20" stroke-width="1.5" d="M28 76.5c-14.24 0-26.2-11.59-26.2-25.83C1.8 43 4 37.66 6.4 32a67 67 0 0 0 4.09-12 19.57 19.57 0 0 1 6.32 5.69 1.3 1.3 0 0 0 1 .59 1.33 1.33 0 0 0 1.08-.5C19.26 25.29 28 16.65 28 1a41.71 41.71 0 0 1 7.7 8.75 42.9 42.9 0 0 1 6.21 13.44A51 51 0 0 1 43 42.85c-.06.493.165.977.58 1.25.42.27.96.27 1.38 0a33.53 33.53 0 0 0 6.6-6.43c1.42 3 2.6 9.88 2.6 15.65C54.2 66.24 45.89 76.5 28 76.5z"/></g><g><path fill="none" stroke="#a3a7cc" stroke-linecap="round" stroke-linejoin="round" stroke-miterlimit="20" stroke-width="1.5" d="M47.984 52.33c.03 10.268-6.318 18.421-19.985 18.421-3.398 0-6.626-.898-9.459-2.48"/></g></g></svg>