<svg xmlns="http://www.w3.org/2000/svg" width="328" height="172" viewBox="0 0 328 172"><g><g><path fill="#f2d1a2" d="M215.284 109.6c0 25.91 21.723 46.984 48.432 46.984 26.709 0 48.432-21.074 48.432-46.984s-21.723-46.983-48.432-46.983c-26.71 0-48.432 21.073-48.432 46.983zm-112.73 0c0 25.91 21.722 46.984 48.431 46.984 26.709 0 48.432-21.074 48.432-46.984s-21.723-46.983-48.432-46.983c-26.709 0-48.432 21.073-48.432 46.983zm104.791-29.99c10.956-19.289 32.105-32.4 56.366-32.4 35.453 0 64.304 27.994 64.289 62.395C328 144.007 299.15 172 263.695 172c-24.261 0-45.41-13.11-56.365-32.399C196.374 158.89 175.225 172 150.964 172c-22.514 0-42.345-11.293-53.84-28.347C88.548 160.43 70.718 172 50.14 172 26.531 172 6.526 156.763 0 135.888l14.496-7.087c3.62 15.868 18.228 27.793 35.661 27.793 20.133 0 36.519-15.9 36.519-35.434 0-19.535-16.386-35.434-36.519-35.434-12.527 0-23.578 6.147-30.167 15.498v-.092H2.016l.03-.08c.039-.1.08-.208.13-.305l14.02-53.536h63.097l-3.589 15.406H28.548L24.88 76.652c7.494-4.037 16.116-6.332 25.277-6.332 16.164 0 30.628 7.133 40.25 18.333 8.891-24.126 32.692-41.442 60.573-41.442 24.26 0 45.41 13.11 56.365 32.399zm11.581-50.504h11.977c3.361 0 6.093-2.664 6.093-5.944s-2.732-5.944-6.093-5.944h-11.977zM235.305 8.61c0-2.488-2.07-4.51-4.62-4.51h-11.759v9.02h11.76c2.549 0 4.619-2.022 4.619-4.51zm1.422 6.272c2.703 1.812 4.481 4.846 4.481 8.281 0 5.399-4.393 9.818-9.879 10.031v.013h-16.605V0h15.974c4.868 0 8.829 3.862 8.829 8.609 0 2.472-1.08 4.702-2.8 6.272zm-123.09 9.761l3.14 2.722a17.164 17.164 0 0 1-12.947 5.842c-9.387 0-17.025-7.449-17.025-16.603C86.805 7.449 94.443 0 103.83 0c4.91 0 9.34 2.042 12.451 5.297l-2.8 3.086A12.934 12.934 0 0 0 103.83 4.1c-7.07 0-12.822 5.608-12.822 12.503 0 6.895 5.751 12.503 12.822 12.503 3.93 0 7.453-1.734 9.807-4.464zm70.675 4.464c5.097 0 9.245-4.046 9.245-9.019V0h4.202v20.087c0 7.232-6.034 13.119-13.447 13.119h-.42c-7.414 0-13.448-5.887-13.448-13.119V0h4.202v20.087c0 4.973 4.148 9.02 9.245 9.02zM132.724 0h4.204v29.311h17.868v4.1h-22.072z"/></g></g></svg>