<svg xmlns="http://www.w3.org/2000/svg" width="143" height="13" viewBox="0 0 143 13"><defs><linearGradient id="iwxwa" x1="0" x2="142.71" y1="6.76" y2="6.76" gradientUnits="userSpaceOnUse"><stop offset="0" stop-color="#ccaa7a"/><stop offset="1" stop-color="#ffeacc"/></linearGradient></defs><g><g><path fill="url(#iwxwa)" d="M132.263 12.683V0h1.968v5.361h6.513V0h1.969v12.683h-1.969V7.066h-6.513v5.617zm-20.85 0V0h1.953v9.448h.044L119.947 0h1.82v12.683h-1.952v-9.44h-.044l-6.546 9.44zm-12.482 0V7.25h-.035c-.607.404-1.644.844-3.077.844-3.181 0-4.851-2.04-4.851-4.676V0h1.969v3.357c0 1.855 1.072 2.989 3.05 2.989 1.265 0 2.337-.378 2.944-.94V0h1.968v12.683zm-28.61 0V0h1.952v9.448h.044L78.854 0h1.821v12.683h-1.953v-9.44h-.044l-6.545 9.44zm-11.903-8.5v-.017c0-1.582-.984-2.505-2.69-2.505h-2.267v5.036h2.268c1.705 0 2.689-.923 2.689-2.513zm-6.926 8.5V0h4.72c2.496 0 4.21 1.67 4.21 4.157v.018c0 2.478-1.714 4.175-4.21 4.175H53.46v4.333zm-20.823 0V0h10.318v12.683H39.02V1.696h-6.381v10.987zM.009 9.263L0 9.159h1.88l.01.07c.167 1.143 1.204 2.022 2.619 2.022 1.6 0 2.716-1.107 2.716-2.68v-.018C7.215 6.996 6.1 5.897 4.526 5.897c-.782 0-1.459.229-1.968.686-.238.202-.44.448-.607.73H.23L.853 0H8.41v1.661H2.443l-.386 4.017H2.1c.57-.853 1.626-1.336 2.874-1.336 2.425 0 4.174 1.749 4.174 4.175v.017c0 2.575-1.924 4.36-4.658 4.36-2.54 0-4.306-1.539-4.482-3.63z"/></g></g></svg>