<svg xmlns="http://www.w3.org/2000/svg" width="125" height="48" viewBox="0 0 125 48"><defs><linearGradient id="ta65a" x1="3.68" x2="21.32" y1="34.12" y2="3.47" gradientUnits="userSpaceOnUse"><stop offset="0" stop-color="#bb8730"/><stop offset="0" stop-color="#c3a882"/><stop offset=".85" stop-color="#f1e7ca"/></linearGradient><linearGradient id="ta65b" x1="5.58" x2="18.21" y1="50.7" y2="28.76" gradientUnits="userSpaceOnUse"><stop offset="0" stop-color="#bb8730"/><stop offset="0" stop-color="#c3a882"/><stop offset=".85" stop-color="#f1e7ca"/></linearGradient><linearGradient id="ta65c" x1="35.76" x2="43.52" y1="32.39" y2="18.92" gradientUnits="userSpaceOnUse"><stop offset="0" stop-color="#bb8730"/><stop offset="0" stop-color="#c3a882"/><stop offset=".85" stop-color="#f1e7ca"/></linearGradient><linearGradient id="ta65d" x1="48.84" x2="56.62" y1="30.93" y2="17.41" gradientUnits="userSpaceOnUse"><stop offset="0" stop-color="#bb8730"/><stop offset="0" stop-color="#c3a882"/><stop offset=".85" stop-color="#f1e7ca"/></linearGradient><linearGradient id="ta65e" x1="62.11" x2="69.14" y1="31.5" y2="19.3" gradientUnits="userSpaceOnUse"><stop offset="0" stop-color="#bb8730"/><stop offset="0" stop-color="#c3a882"/><stop offset=".85" stop-color="#f1e7ca"/></linearGradient><linearGradient id="ta65f" x1="71.09" x2="77.78" y1="31.13" y2="19.51" gradientUnits="userSpaceOnUse"><stop offset="0" stop-color="#bb8730"/><stop offset="0" stop-color="#c3a882"/><stop offset=".85" stop-color="#f1e7ca"/></linearGradient><linearGradient id="ta65g" x1="79.52" x2="88.19" y1="32.86" y2="17.78" gradientUnits="userSpaceOnUse"><stop offset="0" stop-color="#bb8730"/><stop offset="0" stop-color="#c3a882"/><stop offset=".85" stop-color="#f1e7ca"/></linearGradient><linearGradient id="ta65h" x1="91.77" x2="99.82" y1="32.31" y2="18.33" gradientUnits="userSpaceOnUse"><stop offset="0" stop-color="#bb8730"/><stop offset="0" stop-color="#c3a882"/><stop offset=".85" stop-color="#f1e7ca"/></linearGradient><linearGradient id="ta65i" x1="103.49" x2="110.52" y1="31.5" y2="19.3" gradientUnits="userSpaceOnUse"><stop offset="0" stop-color="#bb8730"/><stop offset="0" stop-color="#c3a882"/><stop offset=".85" stop-color="#f1e7ca"/></linearGradient><linearGradient id="ta65j" x1="115.82" x2="122.84" y1="31.51" y2="19.3" gradientUnits="userSpaceOnUse"><stop offset="0" stop-color="#bb8730"/><stop offset="0" stop-color="#c3a882"/><stop offset=".85" stop-color="#f1e7ca"/></linearGradient><linearGradient id="ta65k" x1="37.71" x2="45.17" y1="49.72" y2="36.75" gradientUnits="userSpaceOnUse"><stop offset="0" stop-color="#bb8730"/><stop offset="0" stop-color="#c3a882"/><stop offset=".85" stop-color="#f1e7ca"/></linearGradient><linearGradient id="ta65l" x1="48.43" x2="55.21" y1="47.03" y2="35.26" gradientUnits="userSpaceOnUse"><stop offset="0" stop-color="#bb8730"/><stop offset="0" stop-color="#c3a882"/><stop offset=".85" stop-color="#f1e7ca"/></linearGradient><linearGradient id="ta65m" x1="60.62" x2="68.08" y1="49.72" y2="36.75" gradientUnits="userSpaceOnUse"><stop offset="0" stop-color="#bb8730"/><stop offset="0" stop-color="#c3a882"/><stop offset=".85" stop-color="#f1e7ca"/></linearGradient><linearGradient id="ta65n" x1="70.12" x2="77.49" y1="47.94" y2="35.12" gradientUnits="userSpaceOnUse"><stop offset="0" stop-color="#bb8730"/><stop offset="0" stop-color="#c3a882"/><stop offset=".85" stop-color="#f1e7ca"/></linearGradient><linearGradient id="ta65o" x1="82.26" x2="90.06" y1="47.94" y2="34.37" gradientUnits="userSpaceOnUse"><stop offset="0" stop-color="#bb8730"/><stop offset="0" stop-color="#c3a882"/><stop offset=".85" stop-color="#f1e7ca"/></linearGradient><linearGradient id="ta65p" x1="93.69" x2="102.73" y1="49.01" y2="33.3" gradientUnits="userSpaceOnUse"><stop offset="0" stop-color="#bb8730"/><stop offset="0" stop-color="#c3a882"/><stop offset=".85" stop-color="#f1e7ca"/></linearGradient><linearGradient id="ta65q" x1="106.45" x2="113.83" y1="45.56" y2="32.72" gradientUnits="userSpaceOnUse"><stop offset="0" stop-color="#bb8730"/><stop offset="0" stop-color="#c3a882"/><stop offset=".85" stop-color="#f1e7ca"/></linearGradient></defs><g><g><g><path fill="url(#ta65a)" d="M5.144 5.155h6.945c3.787.066 6.824 3.166 6.824 6.967 0 3.802-3.037 6.902-6.824 6.967H5.144zm0 26.837v-7.745h9.001c4.47.008 8.258 3.305 8.897 7.745h5.182a14.213 14.213 0 0 0-7.583-11.303 12.152 12.152 0 0 0 2.613-13.212A12.08 12.08 0 0 0 12.089 0H0v31.992z"/></g><g><path fill="url(#ta65b)" d="M23.042 34.57c-.64 4.439-4.427 7.736-8.897 7.745h-9V34.57H0v12.902h14.145c7.309-.01 13.41-5.6 14.083-12.902z"/></g><g><path fill="url(#ta65c)" d="M42.364 27.846c.024.416-.16.817-.49 1.07-.407.27-.892.4-1.38.37h-1.65v-2.888h1.567c.364-.01.728.047 1.072.165.264.09.493.261.656.488a1.3 1.3 0 0 1 .225.768zm-1.97-6.474c.417-.023.829.101 1.165.351.285.229.444.58.43.948v.018c.017.392-.149.768-.448 1.017-.299.248-.736.372-1.311.372h-1.387v-2.714zm5.92 6.759v-.019a2.797 2.797 0 0 0-.446-1.553c-.3-.463-.71-.842-1.193-1.105a3.454 3.454 0 0 0-1.632-.431v-.074c.492-.06.965-.227 1.385-.49.402-.25.736-.594.973-1.004.24-.421.364-.9.356-1.386v-.017a3.108 3.108 0 0 0-.51-1.793 3.23 3.23 0 0 0-1.478-1.145 6.079 6.079 0 0 0-2.326-.402H34.96v13.23h6.698a5.894 5.894 0 0 0 2.46-.475 3.797 3.797 0 0 0 1.616-1.335c.392-.592.594-1.29.58-2.001z"/></g><g><path fill="url(#ta65d)" d="M58.845 18.71H54.97v8.134c0 .698-.165 1.232-.494 1.603-.33.375-.81.561-1.444.561-.634 0-1.108-.186-1.44-.56-.331-.375-.498-.907-.498-1.604V18.71h-3.874v8.52c-.022.924.231 1.835.726 2.616a4.76 4.76 0 0 0 2.034 1.724 7.952 7.952 0 0 0 6.114 0 4.78 4.78 0 0 0 2.028-1.729 4.684 4.684 0 0 0 .722-2.608z"/></g><g><path fill="url(#ta65e)" d="M71.292 27.708c0-1.076-.342-1.917-1.024-2.522-.683-.606-1.731-1.037-3.144-1.294l-1.325-.238c-.496-.07-.979-.211-1.435-.419a.758.758 0 0 1-.446-.693v-.01a.885.885 0 0 1 .181-.545c.142-.177.33-.31.545-.385.285-.102.587-.15.89-.142.321-.005.641.044.945.147.252.081.48.221.668.408.165.17.267.391.288.628l.01.092h3.563v-.21a3.986 3.986 0 0 0-.694-2.15 4.076 4.076 0 0 0-1.847-1.406 7.832 7.832 0 0 0-2.97-.496 6.946 6.946 0 0 0-2.795.521 4.529 4.529 0 0 0-1.924 1.505 3.825 3.825 0 0 0-.699 2.303 3.302 3.302 0 0 0 1.043 2.511c.696.655 1.7 1.099 3.013 1.332l1.324.236a5.905 5.905 0 0 1 1.544.442.76.76 0 0 1 .448.705.86.86 0 0 1-.229.588 1.524 1.524 0 0 1-.642.404 3.065 3.065 0 0 1-1.002.147 3.138 3.138 0 0 1-1.005-.153 2.153 2.153 0 0 1-.76-.418 1.185 1.185 0 0 1-.383-.628l-.017-.082H59.85l.01.174c.024.8.294 1.573.772 2.214a4.329 4.329 0 0 0 1.947 1.39c.948.336 1.95.497 2.955.475a7.974 7.974 0 0 0 3.107-.544 4.345 4.345 0 0 0 1.969-1.551 4.115 4.115 0 0 0 .682-2.336z"/></g><g><path fill="url(#ta65f)" d="M72.49 18.7h3.874v13.23H72.49z"/></g><g><path fill="url(#ta65g)" d="M81.816 25.055h.062l4.698 6.876h3.19V18.7H85.89v6.767h-.063l-4.66-6.767H77.94v13.23h3.876v-6.875z"/></g><g><path fill="url(#ta65h)" d="M100.442 28.85h-5.428v-2.1h5.09v-2.859h-5.09v-2.11h5.428V18.7H91.14v13.23h9.302v-3.08z"/></g><g><path fill="url(#ta65i)" d="M111.648 25.176c-.682-.604-1.73-1.036-3.144-1.294l-1.325-.238c-.496-.07-.979-.211-1.435-.419a.758.758 0 0 1-.446-.693v-.01a.885.885 0 0 1 .181-.545c.142-.176.331-.31.545-.385.285-.102.587-.15.89-.142a2.83 2.83 0 0 1 .947.147c.25.082.479.222.666.408.167.168.269.39.288.628l.01.092h3.563v-.21a3.986 3.986 0 0 0-.694-2.15 4.076 4.076 0 0 0-1.847-1.406 7.832 7.832 0 0 0-2.97-.496 6.946 6.946 0 0 0-2.787.532 4.529 4.529 0 0 0-1.923 1.505 3.825 3.825 0 0 0-.7 2.302 3.302 3.302 0 0 0 1.044 2.512c.695.654 1.7 1.098 3.012 1.331l1.325.237a5.904 5.904 0 0 1 1.543.441.76.76 0 0 1 .449.706.85.85 0 0 1-.23.588 1.524 1.524 0 0 1-.642.404 3.065 3.065 0 0 1-1.001.146 3.138 3.138 0 0 1-1.006-.152 2.153 2.153 0 0 1-.76-.419 1.169 1.169 0 0 1-.38-.628l-.02-.082h-3.571v.174c.024.8.293 1.574.772 2.215a4.329 4.329 0 0 0 1.946 1.39c.949.335 1.95.496 2.956.475a7.992 7.992 0 0 0 3.108-.545 4.366 4.366 0 0 0 1.97-1.55c.459-.692.7-1.506.69-2.337 0-1.082-.342-1.927-1.024-2.532z"/></g><g><path fill="url(#ta65j)" d="M123.978 25.176c-.685-.604-1.732-1.036-3.144-1.294l-1.327-.238a5.202 5.202 0 0 1-1.433-.419.76.76 0 0 1-.448-.693v-.01a.875.875 0 0 1 .183-.544c.141-.178.33-.311.543-.386.285-.102.587-.15.89-.142.322-.005.642.044.947.147.251.082.48.222.668.408.165.17.267.391.288.628v.092h3.563v-.21a3.95 3.95 0 0 0-.695-2.15 4.055 4.055 0 0 0-1.854-1.406 7.824 7.824 0 0 0-2.97-.496 6.955 6.955 0 0 0-2.788.532 4.544 4.544 0 0 0-1.923 1.505 3.838 3.838 0 0 0-.699 2.302c-.03.95.35 1.865 1.043 2.512.695.654 1.699 1.098 3.01 1.331l1.325.237a5.898 5.898 0 0 1 1.546.441.758.758 0 0 1 .446.706.858.858 0 0 1-.227.588c-.178.187-.4.326-.645.404a3.065 3.065 0 0 1-1.001.146 3.138 3.138 0 0 1-1.006-.152 2.125 2.125 0 0 1-.757-.419 1.16 1.16 0 0 1-.384-.628l-.019-.082h-3.55v.174c.025.8.294 1.573.772 2.215a4.34 4.34 0 0 0 1.946 1.39 8.319 8.319 0 0 0 2.96.506 7.986 7.986 0 0 0 3.108-.544 4.356 4.356 0 0 0 1.97-1.551 4.13 4.13 0 0 0 .684-2.367c0-1.083-.34-1.928-1.022-2.533z"/></g><g><path fill="url(#ta65k)" d="M38.258 42.544l1.967-5.812h.046l1.962 5.812zm.88-8.004L34.34 47.77h2.157l1.208-3.574h5.08l1.205 3.575h2.157L41.349 34.54z"/></g><g><path fill="url(#ta65l)" d="M57.416 43.491h-2.038l-.027.09a3.772 3.772 0 0 1-.722 1.413c-.316.381-.719.681-1.174.875a3.91 3.91 0 0 1-1.567.3 3.677 3.677 0 0 1-2.119-.616 3.974 3.974 0 0 1-1.4-1.746 6.634 6.634 0 0 1-.492-2.654 6.548 6.548 0 0 1 .492-2.65c.292-.698.776-1.3 1.396-1.733a3.681 3.681 0 0 1 2.123-.613 3.952 3.952 0 0 1 1.586.297c.448.191.845.485 1.16.858.323.39.556.847.682 1.338l.054.184h2.038v-.092a4.982 4.982 0 0 0-.96-2.303 5.243 5.243 0 0 0-1.93-1.548 6.007 6.007 0 0 0-2.621-.56 6.146 6.146 0 0 0-3.244.838 5.532 5.532 0 0 0-2.12 2.361 8.168 8.168 0 0 0-.75 3.632 8.187 8.187 0 0 0 .75 3.633 5.52 5.52 0 0 0 2.124 2.372 6.643 6.643 0 0 0 5.872.285 5.135 5.135 0 0 0 1.924-1.545 5.033 5.033 0 0 0 .955-2.317z"/></g><g><path fill="url(#ta65m)" d="M61.17 42.544l1.967-5.812h.046l1.962 5.812zm.878-8.004L57.25 47.77h2.155l1.218-3.574h5.082l1.205 3.575h2.155L64.278 34.54z"/></g><g><path fill="url(#ta65n)" d="M78.611 41.155a6.264 6.264 0 0 1-.502 2.64 3.571 3.571 0 0 1-1.47 1.64 4.645 4.645 0 0 1-2.363.562h-2.41v-9.675h2.41a4.645 4.645 0 0 1 2.358.555 3.59 3.59 0 0 1 1.469 1.632c.36.827.535 1.725.508 2.627zm-4.14-6.612H69.82v13.23h4.652c1.317 0 2.44-.26 3.367-.782a5.198 5.198 0 0 0 2.134-2.275c.495-.993.742-2.186.74-3.58v-.025c0-1.395-.248-2.581-.744-3.558a5.194 5.194 0 0 0-2.139-2.236 6.813 6.813 0 0 0-3.358-.774z"/></g><g><path fill="url(#ta65o)" d="M81.98 47.77h8.371v-1.776h-6.325v-4.1h5.985V40.17h-5.985v-3.852h6.325V34.54H81.98v13.23z"/></g><g><path fill="url(#ta65p)" d="M98.23 45.094h-.056L93.908 34.54H91.54v13.23h1.873v-9.755h.067l3.963 9.756h1.517l3.972-9.756h.067v9.756h1.873V34.54h-2.376L98.23 45.094z"/></g><g><path fill="url(#ta65q)" d="M111.333 40.371h-.054l-3.373-5.831h-2.276l4.644 7.812v5.419h2.054v-5.42l4.652-7.811h-2.284l-3.363 5.832z"/></g></g></g></svg>