<svg xmlns="http://www.w3.org/2000/svg" width="83" height="32" viewBox="0 0 83 32"><g><g><g><path fill="#f2f3f3" d="M3.416 3.437h4.61c2.516.044 4.532 2.11 4.532 4.645 0 2.534-2.016 4.6-4.531 4.644H3.416zm0 17.89v-5.162h5.977c2.968.005 5.483 2.203 5.907 5.163h3.44a9.477 9.477 0 0 0-5.034-7.536 8.125 8.125 0 0 0 1.734-8.807A8.02 8.02 0 0 0 8.027 0H0v21.328z"/></g><g><path fill="#f2f3f3" d="M15.3 23.05c-.425 2.96-2.94 5.157-5.907 5.163H3.416V23.05H0v8.601h9.393c4.852-.007 8.903-3.733 9.35-8.601z"/></g><g><path fill="#f2f3f3" d="M28.129 18.563a.835.835 0 0 1-.326.71c-.271.18-.594.266-.918.246h-1.099V17.6h1.043c.243-.006.484.031.714.11.175.06.327.173.436.324.102.15.155.328.15.51zm-1.31-4.316c.277-.015.551.067.775.232a.76.76 0 0 1 .285.626v.013a.823.823 0 0 1-.298.672c-.198.164-.489.246-.872.246h-.923v-1.795zm3.93 4.504v-.013a1.87 1.87 0 0 0-.296-1.035 2.193 2.193 0 0 0-.792-.737 2.286 2.286 0 0 0-1.084-.288v-.048c.327-.04.64-.152.92-.327a1.92 1.92 0 0 0 .646-.67c.16-.28.241-.6.236-.924v-.01a2.078 2.078 0 0 0-.339-1.197 2.146 2.146 0 0 0-.98-.763 4.022 4.022 0 0 0-1.545-.268H23.21v8.82h4.448a3.9 3.9 0 0 0 1.633-.316c.433-.19.805-.498 1.073-.89.26-.395.394-.86.385-1.334z"/></g><g><path fill="#f2f3f3" d="M39.079 12.47h-2.572v5.423c0 .465-.11.821-.329 1.069-.219.25-.537.374-.958.374-.421 0-.736-.125-.956-.374-.22-.25-.33-.605-.33-1.07V12.47H31.36v5.68a3.128 3.128 0 0 0 .482 1.744c.332.505.8.904 1.35 1.15a5.26 5.26 0 0 0 4.06 0A3.177 3.177 0 0 0 38.6 19.89c.326-.52.493-1.124.479-1.739z"/></g><g><path fill="#f2f3f3" d="M47.337 18.479c0-.718-.226-1.278-.68-1.682-.453-.404-1.149-.691-2.087-.862l-.88-.16c-.329-.046-.65-.14-.953-.278a.505.505 0 0 1-.296-.462v-.007a.592.592 0 0 1 .12-.363.8.8 0 0 1 .362-.257c.19-.068.39-.1.591-.095.214-.003.426.03.628.098.167.055.319.148.443.272a.69.69 0 0 1 .191.419l.007.061h2.366v-.14a2.665 2.665 0 0 0-.461-1.432 2.707 2.707 0 0 0-1.226-.938c-.63-.238-1.3-.35-1.972-.33a4.596 4.596 0 0 0-1.857.347c-.508.21-.95.557-1.277 1.003a2.557 2.557 0 0 0-.464 1.535c-.019.632.234 1.243.693 1.674.462.437 1.128.732 2 .888l.88.157c.353.051.698.15 1.025.295.183.083.3.268.297.47a.574.574 0 0 1-.152.392 1.012 1.012 0 0 1-.427.27c-.214.069-.439.102-.664.097a2.076 2.076 0 0 1-.668-.102 1.428 1.428 0 0 1-.504-.279.79.79 0 0 1-.255-.418l-.011-.055H39.74l.007.116c.016.534.195 1.05.512 1.476.336.425.784.746 1.293.927.63.224 1.295.331 1.962.317a5.276 5.276 0 0 0 2.063-.363 2.887 2.887 0 0 0 1.307-1.034 2.751 2.751 0 0 0 .453-1.557z"/></g><g><path fill="#f2f3f3" d="M48.14 12.47h2.572v8.82H48.14z"/></g><g><path fill="#f2f3f3" d="M54.324 16.707h.041l3.12 4.584h2.117V12.47H57.03v4.511h-.042l-3.094-4.511H51.75v8.82h2.574v-4.583z"/></g><g><path fill="#f2f3f3" d="M66.696 19.236h-3.604v-1.4h3.38v-1.905h-3.38v-1.407h3.604V12.47H60.52v8.82h6.176v-2.054z"/></g><g><path fill="#f2f3f3" d="M74.137 16.787c-.452-.403-1.148-.69-2.087-.862l-.88-.16c-.329-.046-.65-.14-.953-.278a.505.505 0 0 1-.296-.462v-.007a.592.592 0 0 1 .12-.363.808.808 0 0 1 .362-.257c.19-.068.39-.1.591-.095.214-.003.427.03.63.098.166.055.317.148.441.272.11.113.179.26.191.419l.007.061h2.366v-.14a2.665 2.665 0 0 0-.461-1.432 2.707 2.707 0 0 0-1.226-.938c-.63-.238-1.3-.35-1.972-.331a4.596 4.596 0 0 0-1.851.354 3.01 3.01 0 0 0-1.277 1.004 2.557 2.557 0 0 0-.464 1.535c-.02.632.233 1.243.692 1.674.462.437 1.129.732 2 .888l.88.157c.353.051.698.15 1.025.295.184.083.301.268.298.47a.567.567 0 0 1-.152.392 1.011 1.011 0 0 1-.427.27c-.215.069-.44.102-.665.097a2.076 2.076 0 0 1-.668-.102 1.428 1.428 0 0 1-.504-.279.78.78 0 0 1-.253-.418l-.013-.055H67.22v.116c.016.534.195 1.05.512 1.476.336.425.784.746 1.293.927.63.224 1.295.331 1.963.317a5.288 5.288 0 0 0 2.063-.363 2.901 2.901 0 0 0 1.308-1.034 2.76 2.76 0 0 0 .458-1.557c0-.722-.226-1.285-.68-1.689z"/></g><g><path fill="#f2f3f3" d="M82.317 16.787c-.454-.403-1.15-.69-2.087-.862l-.881-.16a3.443 3.443 0 0 1-.952-.278.507.507 0 0 1-.297-.462v-.007a.585.585 0 0 1 .122-.363.795.795 0 0 1 .36-.257c.19-.068.39-.1.591-.095.214-.003.426.03.629.098.167.055.318.148.443.272a.69.69 0 0 1 .191.419v.061h2.366v-.14a2.64 2.64 0 0 0-.461-1.432 2.693 2.693 0 0 0-1.232-.938c-.63-.238-1.3-.35-1.972-.33a4.602 4.602 0 0 0-1.85.354c-.509.21-.95.557-1.278 1.003a2.566 2.566 0 0 0-.464 1.535c-.02.633.233 1.243.693 1.674.462.437 1.128.732 1.999.888l.88.158c.353.05.698.15 1.026.294.183.083.3.268.296.47a.573.573 0 0 1-.15.392 1.007 1.007 0 0 1-.429.27c-.215.069-.44.102-.665.097a2.076 2.076 0 0 1-.667-.102 1.41 1.41 0 0 1-.503-.279.774.774 0 0 1-.255-.418l-.013-.055H75.4v.116c.016.534.195 1.049.512 1.476.337.425.784.746 1.293.927.63.231 1.295.346 1.965.338a5.284 5.284 0 0 0 2.064-.363 2.894 2.894 0 0 0 1.308-1.034 2.761 2.761 0 0 0 .454-1.578c0-.722-.226-1.285-.679-1.689z"/></g><g><path fill="#f2f3f3" d="M25.404 28.366l1.308-3.875h.031l1.306 3.875zm.582-5.336L22.8 31.85h1.432l.802-2.383h3.373l.8 2.384h1.433l-3.186-8.821z"/></g><g><path fill="#f2f3f3" d="M38.127 28.998h-1.354l-.018.06a2.519 2.519 0 0 1-.479.941c-.21.255-.477.455-.78.584-.33.137-.683.205-1.04.2-.5.01-.99-.133-1.407-.411a2.648 2.648 0 0 1-.93-1.164 4.438 4.438 0 0 1-.327-1.77 4.38 4.38 0 0 1 .327-1.766 2.66 2.66 0 0 1 .927-1.155c.417-.278.91-.421 1.41-.409.36-.007.719.06 1.053.198.297.127.561.323.77.572.215.26.37.564.453.892l.036.123h1.353v-.062a3.329 3.329 0 0 0-.637-1.535 3.484 3.484 0 0 0-1.281-1.032 3.975 3.975 0 0 0-1.741-.373 4.068 4.068 0 0 0-2.154.558c-.612.375-1.101.922-1.408 1.574a5.464 5.464 0 0 0-.498 2.421c-.02.836.15 1.665.498 2.423a3.675 3.675 0 0 0 1.41 1.58c1.2.67 2.64.74 3.9.19.502-.233.94-.586 1.277-1.03.337-.452.556-.983.634-1.544z"/></g><g><path fill="#f2f3f3" d="M40.615 28.366l1.304-3.875h.03l1.3 3.875zm.58-5.336l-3.185 8.82h1.43l.81-2.383h3.374l.8 2.384h1.431l-3.179-8.821z"/></g><g><path fill="#f2f3f3" d="M52.204 27.43a4.182 4.182 0 0 1-.334 1.759c-.203.46-.546.842-.978 1.094a3.084 3.084 0 0 1-1.57.373h-1.603V24.21h1.602a3.084 3.084 0 0 1 1.568.37c.43.251.772.631.977 1.088.24.551.356 1.149.338 1.75zm-2.755-4.408H46.36v8.82h3.089c.874 0 1.62-.174 2.235-.521a3.46 3.46 0 0 0 1.417-1.517c.33-.662.493-1.457.492-2.386V27.4c0-.93-.165-1.721-.494-2.372a3.457 3.457 0 0 0-1.42-1.49 4.509 4.509 0 0 0-2.23-.517z"/></g><g><path fill="#f2f3f3" d="M54.43 31.85h5.559v-1.184h-4.2v-2.734h3.974v-1.148h-3.974v-2.568h4.2V23.03H54.43v8.82z"/></g><g><path fill="#f2f3f3" d="M65.222 30.066h-.037l-2.833-7.036H60.78v8.82h1.244v-6.504h.044l2.632 6.505h1.007l2.637-6.505h.044v6.505h1.244V23.03h-1.577l-2.833 7.036z"/></g><g><path fill="#f2f3f3" d="M73.927 26.918h-.036l-2.24-3.888H70.14l3.083 5.208v3.613h1.365v-3.613l3.088-5.208H76.16l-2.233 3.888z"/></g></g></g></svg>