<?xml version="1.0" encoding="UTF-8"?>
<svg width="56px" height="18px" viewBox="0 0 56 18" version="1.1" xmlns="http://www.w3.org/2000/svg" xmlns:xlink="http://www.w3.org/1999/xlink">
    <title>REC</title>
    <g id="Webinar" stroke="none" stroke-width="1" fill="none" fill-rule="evenodd">
        <g id="BR_360-Webinar-2" transform="translate(-39.000000, -5673.000000)">
            <g id="frame-show" transform="translate(16.000000, 5653.000000)">
                <g id="REC" transform="translate(24.000000, 21.000000)">
                    <path d="M26.515625,14 L26.515625,9.3828125 L29.5625,9.3828125 L29.5625,9.3828125 L32.15625,14 L33.40625,14 L30.671875,9.2109375 C32.1796875,8.8125 33.0859375,7.6171875 33.0859375,6.03125 L33.0859375,6.015625 C33.0859375,4.0078125 31.6796875,2.7265625 29.484375,2.7265625 L25.4453125,2.7265625 L25.4453125,14 L26.515625,14 Z M29.3984375,8.4296875 L26.515625,8.4296875 L26.515625,3.6796875 L29.3515625,3.6796875 C30.9921875,3.6796875 31.9921875,4.5703125 31.9921875,6.046875 L31.9921875,6.0625 C31.9921875,7.5625 31.03125,8.4296875 29.3984375,8.4296875 Z M42.484375,14 L42.484375,13.03125 L36.7421875,13.03125 L36.7421875,8.703125 L42.1953125,8.703125 L42.1953125,7.75 L36.7421875,7.75 L36.7421875,3.6953125 L42.484375,3.6953125 L42.484375,2.7265625 L35.671875,2.7265625 L35.671875,14 L42.484375,14 Z M49.5390625,14.234375 C51.9296875,14.234375 53.7109375,12.859375 54.03125,10.796875 L54.0234375,10.78125 L52.953125,10.7890625 L52.9453125,10.796875 C52.6328125,12.2734375 51.28125,13.2421875 49.5390625,13.2421875 C47.1640625,13.2421875 45.6640625,11.3515625 45.6640625,8.375 L45.6640625,8.359375 C45.6640625,5.3828125 47.171875,3.484375 49.53125,3.484375 C51.2265625,3.484375 52.6171875,4.578125 52.9453125,6.1640625 L52.953125,6.171875 L54.0234375,6.171875 L54.03125,6.1640625 C53.7265625,4.03125 51.8515625,2.4921875 49.53125,2.4921875 C46.4765625,2.4921875 44.5703125,4.75 44.5703125,8.359375 L44.5703125,8.375 C44.5703125,11.984375 46.4765625,14.234375 49.5390625,14.234375 Z" fill="#D9BB91" fill-rule="nonzero"></path>
                    <circle id="Oval" stroke="#D9BB91" stroke-linecap="round" stroke-linejoin="round" cx="8" cy="8" r="8"></circle>
                </g>
            </g>
        </g>
    </g>
</svg>