<?xml version="1.0" encoding="UTF-8"?>
<svg width="28px" height="28px" viewBox="0 0 28 28" version="1.1" xmlns="http://www.w3.org/2000/svg" xmlns:xlink="http://www.w3.org/1999/xlink">
    <title>icon inst</title>
    <g id="Webinar" stroke="none" stroke-width="1" fill="none" fill-rule="evenodd">
        <path d="M3.04732839,20.9368873 L3.04732839,7.06334244 C3.04732839,4.84917099 4.84905614,3.04732839 7.06322758,3.04732839 L20.9367724,3.04732839 C23.1514033,3.04732839 24.953131,4.84917099 24.953131,7.06334244 L24.953131,20.9368873 C24.953131,23.1514033 23.1514033,24.9532459 20.9367724,24.9532459 L7.06322758,24.9532459 C4.84905614,24.9532459 3.04732839,23.1514033 3.04732839,20.9368873 L3.04732839,20.9368873 Z M20.9367724,28 C24.8319592,28 27.9998851,24.832074 27.9998851,20.9368873 L27.9998851,7.06334244 C27.9998851,3.16838539 24.8319592,0 20.9367724,0 L7.06322758,0 C3.16838539,0 0,3.16838539 0,7.06334244 L0,20.9368873 C0,24.832074 3.16838539,28 7.06322758,28 L20.9367724,28 Z M14.0120344,9.70180023 C16.332093,9.70180023 18.2192875,11.5410574 18.2192875,13.8007228 C18.2192875,16.0612927 16.332093,17.9010022 14.0120344,17.9010022 C11.6929042,17.9010022 9.80431707,16.0612927 9.80431707,13.8007228 C9.80431707,11.5410574 11.6929042,9.70180023 14.0120344,9.70180023 M14.0120344,6.70138892 C18.0297789,6.70138892 21.298657,9.88644962 21.298657,13.8007228 C21.298657,17.7154482 18.0297789,20.9005089 14.0120344,20.9005089 C9.99475406,20.9005089 6.72587597,17.7154482 6.72587597,13.8007228 C6.72587597,9.88644962 9.99475406,6.70138892 14.0120344,6.70138892 Z M21.4857139,4.83308366 C22.4127489,4.83308366 23.1669623,5.58737316 23.1669623,6.51461499 C23.1669623,7.44174363 22.4127489,8.19603313 21.4857139,8.19603313 C20.5582262,8.19603313 19.8040128,7.44174363 19.8040128,6.51461499 C19.8040128,5.58737316 20.5582262,4.83308366 21.4857139,4.83308366 Z" id="icon-inst" fill="#F2F3F3"></path>
    </g>
</svg>