<svg xmlns="http://www.w3.org/2000/svg" width="34" height="28" viewBox="0 0 34 28"><g><g><path fill="#f2f3f3" d="M2.337 12.054c9.127-3.951 15.213-6.557 18.258-7.815C29.29.645 31.096.02 32.274 0c.259-.004.838.06 1.213.362.317.256.404.6.446.843.041.242.093.793.052 1.224-.471 4.92-2.51 16.858-3.547 22.368-.439 2.33-1.303 3.113-2.14 3.19-1.818.165-3.198-1.195-4.96-2.342-2.755-1.795-4.311-2.912-6.986-4.664-3.091-2.024-1.087-3.136.674-4.954.461-.476 8.472-7.717 8.627-8.374.02-.082.037-.388-.146-.55-.183-.161-.453-.106-.648-.062-.276.062-4.678 2.954-13.206 8.674-1.25.852-2.38 1.268-3.395 1.246-1.118-.024-3.268-.628-4.867-1.145-1.96-.633-3.518-.968-3.383-2.043.07-.56.847-1.133 2.33-1.72z"/></g></g></svg>