<svg xmlns="http://www.w3.org/2000/svg" width="30" height="32" viewBox="0 0 30 32"><g><g><path fill="#fff" d="M15.697 10.384a.403.403 0 0 0 .379.425c1.308.07 1.944.735 2.012 2.117.011.224.199.396.42.385a.403.403 0 0 0 .38-.425c-.088-1.792-1.047-2.794-2.77-2.885a.402.402 0 0 0-.421.383zm-.607-2.181a.403.403 0 0 0 .37.433c1.51.112 2.66.62 3.487 1.533.826.913 1.223 2.047 1.194 3.425a.403.403 0 0 0 .391.413.402.402 0 0 0 .409-.396c.034-1.58-.435-2.917-1.404-3.989-.972-1.074-2.315-1.667-4.019-1.793a.402.402 0 0 0-.428.374zm-.706-2.073a.403.403 0 0 0 .397.407c2.125.015 3.887.721 5.308 2.123 1.416 1.396 2.135 3.314 2.154 5.777a.402.402 0 0 0 .403.402.403.403 0 0 0 .397-.408c-.02-2.67-.817-4.795-2.395-6.35-1.572-1.551-3.533-2.337-5.861-2.353a.402.402 0 0 0-.403.402zm-5.628.68l-.012.003A6.166 6.166 0 0 0 7.228 8.06l-.004.004-.003.003c-.352.43-.553.85-.604 1.263a.819.819 0 0 0-.011.185c-.002.182.025.363.081.536l.02.014.005.02.011.038.012.04.013.042.013.043.014.043.015.045.023.069.025.071.018.05.019.05.029.077.03.08.033.084.023.057.024.058.025.06.025.06.027.062.04.096.03.065.029.067.03.068.048.104.033.072.051.11.035.074.055.115.038.08.06.12.04.082.063.126.065.13.068.133.046.09.048.093.05.094.05.095.05.098.053.098.08.151.085.155.057.106c.553 1.024 1.19 2 1.905 2.915.358.46.743.897 1.15 1.312l.022.022.022.022.044.044.087.089c.41.412.843.8 1.298 1.163.905.723 1.87 1.367 2.884 1.926l.155.086.152.084.149.081.097.052.142.077.139.074.09.047.133.07.13.067.125.064.123.062.08.04.078.039.077.038.076.036.11.054.073.034.07.033.07.032.068.032.066.03.065.03.096.042.062.027.09.039.088.037.057.023.083.034.054.022.053.02.051.02.05.02.05.017.048.018.047.017.068.023.066.022.042.014.041.013.04.013.04.012.038.01.014.02c.171.057.35.085.53.083.062.003.123 0 .183-.012.409-.049.825-.252 1.249-.61a.018.018 0 0 0 .003-.002l.004-.004.004-.003a6.22 6.22 0 0 0 1.23-1.53l.002-.012c.297-.577.196-1.123-.24-1.495l-.487-.404-.26-.213-.108-.088-.107-.086-.104-.082-.075-.06-.072-.056-.068-.053-.043-.032-.041-.03a17.39 17.39 0 0 0-1.468-.949c-.674-.38-1.362-.141-1.647.231l-.59.752a.846.846 0 0 1-.395.266l-.026.008a1.156 1.156 0 0 1-.064.018l-.025.006-.025.006-.024.004-.024.005-.023.003-.023.003-.022.003-.021.003-.03.002-.02.002-.035.001-.024.001h-.069l-.016-.002-.12-.032c-3.285-.91-4.605-3.839-4.977-4.875l-.022-.063-.02-.057-.009-.027-.018-.056-.015-.049-.013-.04-.013-.045-.008-.03-.002-.023v-.076l.001-.03.001-.022.002-.024.002-.024.003-.026.003-.027.004-.028.003-.014.005-.029c.034-.18.116-.4.304-.553l.743-.597c.368-.287.604-.984.228-1.664-.287-.511-.6-1.007-.937-1.486l-.047-.064-.034-.045-.054-.072-.057-.075-.06-.079-.085-.107-.101-.128-.058-.074-.11-.138-.186-.23-.17-.21-.143-.173c-.368-.426-.902-.522-1.466-.225zm6.013-4.55l.109.002.12.002.036.001.118.004.086.003.07.003.057.003.041.002.033.002c5.984.027 8.85 1.85 9.515 2.46 2.208 1.913 3.332 6.49 2.51 13.195v.002l-.025.194c-.742 5.424-4.25 6.488-5.771 6.857l-.104.025-.187.044-.082.02a7.215 7.215 0 0 0-.023.006l-.044.01-.04.011-.038.01-.05.016-.013.004-.029.009-.017.005-.04.011-.048.013-.054.015-.03.007-.064.017-.07.017-.078.019-.084.02-.09.02-.036.007-.112.025-.105.022-.04.009-.085.017-.087.017-.09.018-.093.018-.096.018-.05.009-.1.018-.104.018-.107.018-.11.019-.055.009-.114.018-.058.01-.119.017-.12.018-.124.018-.126.017-.064.009-.13.017-.133.017-.135.016c-1.385.166-3.151.27-5.097.142l-.408.497-.228.276-.36.434-.354.426-.325.389-.224.267-.227.27-.171.202-.228.269-.17.199-.166.195-.11.128-.108.125-.106.123-.104.12-.102.115-.147.168-.094.106-.09.102-.088.097-.047.051-.089.098-.063.068-.06.065-.039.04-.055.058-.051.053c-.157.16-.34.223-.464.192-.14-.035-.197-.176-.213-.389l-.003-.039-.001-.04v-.033l-.001-.034.027-5.373-.186-.054c-5.652-1.711-5.741-7.473-5.67-11.037l.006-.23.005-.222.009-.424c.082-3.425.732-6.23 2.627-8.124 2.798-2.565 8.007-2.731 9.854-2.704zM3.163 3.288C.9 5.58.103 8.932.02 13.088l-.005.253c-.08 4.212-.04 11.734 7.234 13.804h.007l-.005 3.222V30.452l.001.04.002.035.001.025.002.027.002.028.003.029.003.03.005.048.006.05.003.017.005.035.006.035.006.036.008.037.003.019.009.037.004.02.01.037.009.035.01.035.01.035.011.035.012.035.013.035c.112.297.309.582.658.691.401.126.738.052 1.057-.15l.033-.02a2.52 2.52 0 0 0 .277-.216l.033-.029.032-.03.016-.014.033-.031.016-.016.033-.032.032-.032.033-.033.033-.033.032-.035.05-.052.049-.053.05-.054.049-.055.05-.056.05-.058.077-.087.265-.303.11-.126.056-.063.057-.064.058-.064.066-.071.074-.082.076-.084.078-.087.08-.09.081-.09.083-.094.084-.095.127-.144.086-.098.129-.148.13-.15.17-.198.211-.244.203-.238.193-.226c2.778.236 5.205.047 6.905-.196l.14-.02.27-.042.13-.02.248-.042.12-.021.057-.01.114-.021.109-.021.106-.02.102-.02.098-.02.047-.01.092-.02.115-.024.068-.016.065-.014.063-.015.06-.014.09-.021.081-.02.075-.02.034-.008.063-.017.055-.015.047-.014.039-.011.01-.004.053-.016.035-.01.018-.006.06-.017.065-.017.047-.013.301-.077.11-.03c1.86-.496 6.285-1.98 7.099-8.696.973-8.028-.471-13.105-3.081-15.394C25.828 2.387 22.65.055 15.575.023l-.04-.002-.078-.004-.075-.003-.093-.003-.034-.001-.136-.004C13.323-.036 6.662.042 3.163 3.288z"/></g></g></svg>