<?xml version="1.0" encoding="UTF-8"?>
<svg width="28px" height="28px" viewBox="0 0 28 28" version="1.1" xmlns="http://www.w3.org/2000/svg" xmlns:xlink="http://www.w3.org/1999/xlink">
    <title>icon wa</title>
    <g id="Webinar" stroke="none" stroke-width="1" fill="none" fill-rule="evenodd">
        <path d="M20.4145775,16.7791096 C20.0662337,16.6056709 18.3536604,15.7670181 18.0343285,15.6512593 C17.7149966,15.535567 17.4827674,15.4777541 17.2505382,15.824698 C17.018309,16.1717749 16.3507671,16.9526813 16.147483,17.1841324 C15.9443326,17.415384 15.7411153,17.4444567 15.3928384,17.270885 C15.0444277,17.0973133 13.9219866,16.7312759 12.5914483,15.5500701 C11.5558425,14.6308519 10.8567484,13.495617 10.6535311,13.1484735 C10.4503807,12.8014632 10.6319393,12.613854 10.8063452,12.4409476 C10.9630364,12.2856045 11.1546889,12.0359912 11.3288274,11.8336129 C11.5030327,11.631168 11.5610566,11.4864694 11.6771712,11.2552844 C11.7932858,11.0238333 11.7352619,10.8213884 11.6481593,10.6478832 C11.5610566,10.474378 10.864369,8.76786663 10.574116,8.07364628 C10.2913498,7.39778767 10.0041718,7.48933029 9.7903257,7.47855274 C9.58737583,7.46850701 9.35487925,7.46637811 9.1227169,7.46637811 C8.8904877,7.46637811 8.51306512,7.5531307 8.19380011,7.90014108 C7.87446825,8.24728452 6.9745634,9.08600383 6.9745634,10.7923821 C6.9745634,12.498827 8.22281205,14.1472594 8.39701737,14.378644 C8.57115584,14.6100951 10.8533391,18.1117332 14.347807,19.6134712 C15.1789255,19.9706604 15.8278169,20.1840159 16.3336541,20.3436833 C17.1681818,20.6076666 17.9275726,20.5704109 18.527732,20.4811302 C19.197012,20.3816042 20.588716,19.6424775 20.8790359,18.8326979 C21.169289,18.0227852 21.169289,17.3286979 21.0821863,17.1841324 C20.9951505,17.0395004 20.7629213,16.9526813 20.4145775,16.7791096 M14.0585566,25.4161155 L14.0538773,25.4161155 C11.9746438,25.4153172 9.93525169,24.8594087 8.15609796,23.8086644 L7.73301834,23.5587185 L3.34733587,24.7036665 L4.51790739,20.4481323 L4.24242768,20.0118413 C3.08248495,18.1757332 2.46989187,16.0536876 2.47075997,13.8746274 C2.47330111,7.51627416 7.67151838,2.343318 14.0631691,2.343318 C17.1582215,2.34438245 20.0676375,3.54554665 22.2554317,5.72533867 C24.4431591,7.90506416 25.6472882,10.8025609 25.6461526,13.8838748 C25.6435447,20.2427602 20.4453275,25.4161155 14.0585566,25.4161155 M23.9204763,4.06898946 C21.2883449,1.44638664 17.7879276,0.00146361741 14.0584229,0 C6.37406977,0 0.119924922,6.22376693 0.116849924,13.873696 C0.115847207,16.3191345 0.757786464,18.7060284 1.97782534,20.8102446 L0,28 L7.39055715,26.0705521 C9.42687431,27.1759159 11.7195527,27.7585686 14.0528746,27.759367 L14.0585566,27.759367 L14.0586235,27.759367 C21.7421745,27.759367 27.9969209,21.5349348 28,13.8848061 C28.0013997,10.1775298 26.5526077,6.69152574 23.9204763,4.06898946" id="icon-wa" fill="#F2F3F3"></path>
    </g>
</svg>