<svg xmlns="http://www.w3.org/2000/svg" width="37" height="28" viewBox="0 0 37 28"><g><g><path fill="#f2f3f3" d="M37 12.536v2.991c0 3.182-.383 6.428-.383 6.428s-.383 2.736-1.467 3.945c-1.403 1.527-2.998 1.59-3.7 1.655C26.283 28 18.5 28 18.5 28s-9.633-.064-12.567-.382c-.83-.19-2.68-.127-4.083-1.718C.766 24.691.383 21.955.383 21.955S0 18.773 0 15.527v-2.99C0 9.29.383 6.044.383 6.044S.702 3.31 1.85 2.1C3.253.573 4.848.51 5.55.445 10.717.064 18.5 0 18.5 0s7.783.064 12.95.445c.702.064 2.297.064 3.7 1.655 1.084 1.21 1.467 3.945 1.467 3.945zm-22.873-4.92v13.878l12.11-6.78z"/></g></g></svg>