<svg xmlns="http://www.w3.org/2000/svg" width="109" height="22" viewBox="0 0 109 22"><g><g><g><path fill="#ef3124" d="M14.055 14.633h-3.14l-.953-2.966H4.28l-1.028 2.965H.299L4.752 2.158C5.184.948 5.687 0 7.307 0 8.928 0 9.401.953 9.81 2.158zM9.138 9.162L7.232 3.25h-.075L5.14 9.162zM14.392 22H0v-2.947h14.392zm71.115-10.554c0 .571.187.792.673.792v2.394h-.935c-1.028 0-1.812-.386-2.168-1.086-.398.579-1.31 1.344-2.953 1.344-2.24 0-3.794-1.473-3.794-3.628 0-2.063 1.421-3.298 3.813-3.298h2.673c0-1.252-.673-1.73-1.72-1.73-1.271 0-1.682.663-1.775 1.05h-2.729c.131-1.769 1.645-3.463 4.505-3.463 2.766 0 4.41 1.602 4.41 4.144zm-2.69-.682v-.682h-2.15c-.73 0-1.57.167-1.57 1.18 0 1.032.766 1.382 1.738 1.382 1.121 0 1.981-.683 1.981-1.88zm-7.598-.625c0 2.91-1.852 4.494-5.088 4.494h-5.837V.175h9.802v2.632H67.12v2.93h3.01c3.237 0 5.089 1.658 5.089 4.402zm-2.898-.001c0-1.197-.84-1.878-2.331-1.878h-2.874v3.757h2.874c1.492 0 2.331-.645 2.331-1.879zm-13.727 1.308c0 .571.187.792.673.792v2.394h-.935c-1.028 0-1.812-.386-2.168-1.086-.398.579-1.31 1.344-2.953 1.344-2.24 0-3.794-1.473-3.794-3.628 0-2.063 1.421-3.298 3.813-3.298h2.672c0-1.252-.673-1.73-1.72-1.73-1.271 0-1.682.663-1.775 1.05h-2.729c.131-1.769 1.645-3.463 4.505-3.463 2.766 0 4.41 1.602 4.41 4.144v3.481zm-2.692-1.364h-2.15c-.729 0-1.57.167-1.57 1.18 0 1.032.767 1.382 1.738 1.382 1.122 0 1.982-.683 1.982-1.88zm-7.401-.638c0 3.022-2.075 5.196-5.159 5.436v3.907h-2.691V14.88c-3.084-.258-5.159-2.414-5.159-5.436 0-3.004 2.075-5.16 5.159-5.418V.174h2.691v3.852c3.084.24 5.159 2.396 5.159 5.418zm-7.85-2.934c-1.496.202-2.43 1.307-2.43 2.929 0 1.62.934 2.725 2.43 2.928zm5.121 2.929c0-1.622-.935-2.727-2.43-2.929v5.857c1.495-.203 2.43-1.308 2.43-2.928zm-15.21-2.026c2.564 0 4.023 1.289 4.023 3.573 0 1.768-1.047 3.647-3.985 3.647h-4.678V4.263h2.694v3.15zm1.295 3.572c0-.865-.563-1.27-1.5-1.27h-1.744v2.634h1.744c.956 0 1.5-.424 1.5-1.364zM16.168 4.263h7.7v10.37h-2.692V6.676h-2.58l-.111 3.444c-.102 3.112-.764 4.512-3.514 4.512h-.411v-2.431c1.102 0 1.356-.387 1.42-2.321zm77.944 0h2.695v10.371h-2.695v-4.09H90.39v4.09h-2.695V4.264h2.695V8.13h3.723zm11.15 0h3.383l-4.542 4.936 4.898 5.434h-3.477l-3.981-4.366v4.366h-2.691V4.263h2.691V8.37z"/></g></g></g></svg>