<svg xmlns="http://www.w3.org/2000/svg" width="112" height="22" viewBox="0 0 112 22"><g><g><g><path fill="#166346" d="M0 11C0 4.93 4.948.006 11.056 0v3.975c-3.9.005-7.058 3.148-7.058 7.024 0 3.88 3.166 7.026 7.072 7.026 3.88 0 7.07-3.115 7.07-7.051l4 .002C22.14 17.075 17.186 22 11.07 22 4.954 22 0 17.075 0 11z"/></g><g><path fill="#68c530" d="M6.19 10.998c0-2.694 2.2-4.878 4.91-4.878 2.711 0 4.912 2.184 4.912 4.878 0 2.696-2.201 4.878-4.912 4.878-2.71 0-4.91-2.182-4.91-4.878z"/></g><g><path fill="#166346" d="M14.5 4.815a2.804 2.804 0 0 1 2.814-2.795 2.804 2.804 0 0 1 2.816 2.795 2.805 2.805 0 0 1-2.816 2.799A2.806 2.806 0 0 1 14.5 4.815z"/></g><g><path fill="#68c530" d="M85.456 15.05l1.575-6.997c-.33 0-.655-.02-.983-.02-.72 0-2.142.042-3.432.91-2.293 1.556-2.337 4.352-2.337 4.459 0 1.039.568 2.707 2.558 2.707.589 0 1.333-.153 1.899-.5.242-.149.482-.369.72-.559zm4.176-8.451l-.983 4.2c-.764 3.334-.92 4.154-1.354 6.734l-.157.151-2.052.044-.108-.154.153-.865c-.371.303-1.334 1.104-3.191 1.104-2.227 0-4.042-1.563-4.042-4.265 0-1.709.83-3.571 1.748-4.65 2.034-2.365 4.85-2.493 6.86-2.493l3.017.021zm16.604 3.09c.759-.734 2.608-2.634 2.955-3.002l.24-.128h2.504l.063.193c-.218.195-.327.282-1.198 1.014-.348.285-.562.5-.975.867l-2.83 2.591 3.372 6.378-.129.168-2.416.067-.174-.13c-.566-1.34-.717-1.64-1.498-3.22l-1.524-3.068a177.116 177.116 0 0 0-1.313 6.244l-.151.13-2.219.064-.107-.15.891-3.717.349-1.62c.585-2.55.694-3.11 1.042-5.465l.153-.153c1.023-.128 1.26-.173 2.306-.387l.108.15-.233 1.07-.34 1.67-.415 1.856c.52-.45.821-.731 1.539-1.422zm-31.735.89c0-2.199-1.419-2.566-2.227-2.566-3.431 0-3.87 5.301-3.87 6.104 0 1.742 1.05 2.501 2.231 2.501 2.338 0 3.211-2.389 3.606-4.174.153-.63.26-1.258.26-1.865zm2.013 2.534c-.482 1.87-1.817 5.105-5.923 5.105-2.906 0-4.501-1.5-4.501-4.452 0-.382.03-.808.093-1.252l.046-.332c.79-4.894 2.925-9.53 7.609-9.576.624-.008 1.89-.073 2.75-.276l-.312 1.956c-.868.221-2.24.336-3.043.34-.994.011-1.683.387-2.159.842-.237.223-.422.47-.562.696-.141.221-.244.426-.32.577a6.992 6.992 0 0 1 2.082-.314c2.86 0 4.566 1.586 4.566 4.385 0 .76-.13 1.54-.326 2.3zm24.442-5.527l-.341 1.669c-.804 3.63-1.101 4.8-1.798 8.408l-.155.13-2.217.064-.108-.15.893-3.717.26-1.218c-.95-.021-1.906-.037-2.856-.037-.745 0-1.312.007-1.89.024-.365 1.63-.704 3.264-1.017 4.904l-.154.13-2.22.064-.109-.15.893-3.717.351-1.62c.586-2.55.696-3.11 1.043-5.465l.154-.153c1.02-.128 1.26-.173 2.303-.387l.112.15-.236 1.07-.337 1.67-.356 1.58c.801.02 1.6.032 2.404.032.849 0 1.407-.017 2.35-.036.306-1.382.429-2.136.696-3.926l.153-.153c1.023-.128 1.261-.173 2.306-.387l.108.15-.232 1.07z"/></g><g><path fill="#166346" d="M58.598 8.597c-.733 0-1.556.024-1.922.024-.113.498-.56 2.358-.97 4.167-.485 2.13-.914 4.125-1.081 4.96l-.215.138c-1.117 0-2.552 0-3.698.023l-.127-.134c.235-.93.832-3.466 1.405-5.983.577-2.533 1.075-5.027 1.237-5.728l.192-.16c1.232 0 2.476.047 5.53.047 2.394 0 4.712-.069 5.948-.092l.105.139c-.16.612-.849 3.532-1.506 6.429a211.206 211.206 0 0 0-1.145 5.32l-.168.14c-.98 0-2.78 0-3.72.022l-.1-.161c.2-.79.64-2.625 1.157-4.891.39-1.722.786-3.556.942-4.236-.366 0-1.18-.023-1.864-.023zm-12.671 9.29c-1.095 0-2.894 0-3.649.022l-.129-.134c.21-.726.722-2.674 1.262-5.054.437-1.925.825-3.622.976-4.393-.917.021-2.328.021-3.017.044l-.124-.157c.182-.59.436-1.605.596-2.217l.21-.116c.61.022 2.926.045 4.792.045 2.257 0 4.452-.045 4.913-.068l.155.116c-.168.54-.465 1.65-.616 2.217l-.214.136c-.903-.02-1.587-.02-2.889-.02-.112.494-.465 1.945-1.052 4.526-.44 1.95-.804 3.737-1.014 4.87l-.2.182zm-13.872.27c-2.369 0-5.779-.746-4.543-6.183.461-2.04 1.88-6.364 7.717-6.364 5.676 0 4.831 4.62 4.482 6.251-1.046 4.597-3.872 6.296-7.656 6.296zm.772-2.39c1.66 0 2.437-1.725 2.94-3.946.356-1.566.741-3.857-1.263-3.857-1.706 0-2.464 1.632-2.967 3.857-.469 2.063-.575 3.945 1.29 3.945z"/></g></g></g></svg>