<svg xmlns="http://www.w3.org/2000/svg" width="122" height="30" viewBox="0 0 122 30"><g><g><g><path fill="#222220" d="M80.237 20.749h-2.372v-7.886h2.372v2.972h.654l2.862-2.972h2.976l-3.794 3.735 3.941 4.15H83.72L80.89 17.76h-.654zm-9.397-1.9h2.04c.315.03.632-.01.93-.116a.98.98 0 0 0 .443-.373c.108-.166.164-.362.162-.563a.902.902 0 0 0-.168-.54.87.87 0 0 0-.453-.327 2.697 2.697 0 0 0-.914-.1h-2.04zm-2.365-5.986h2.368v2.074h2.45a4.998 4.998 0 0 1 1.732.217c.54.186 1.006.543 1.325 1.017.32.477.481 1.046.457 1.621.021.625-.17 1.237-.543 1.739-.372.499-.901.852-1.5 1.001a5.294 5.294 0 0 1-1.486.184l-4.803.033zM58.23 20.749v-7.886h2.37v2.905h3.806v-2.906h2.37v7.887h-2.371v-2.956h-3.807v2.956zm-1.699 0h-2.37v-4.616l-4.083 4.616h-2.092v-7.886h2.37v4.565l4.083-4.598h2.092zm-18.581-5.81V12.83h9.181v2.108h-3.365v5.81h-2.451v-5.81z"/></g><g><path fill="#222220" d="M119.589 16.79c0-1.065-.702-1.83-2.351-1.896v3.708c1.649-.067 2.347-.748 2.347-1.813zm-4.717-1.896c-1.633.066-2.351.832-2.351 1.895 0 1.065.718 1.746 2.351 1.812zm7.132 1.895c0 2.258-1.779 3.436-4.766 3.503v.797h-2.366v-.796c-2.971-.068-4.75-1.246-4.75-3.504s1.779-3.536 4.75-3.602v-.797h2.366v.797c2.987.066 4.766 1.344 4.766 3.602zm-14.988 0c0-1.064-.701-1.829-2.35-1.895v3.708c1.653-.067 2.354-.748 2.354-1.813zm-4.717-1.895c-1.632.066-2.35.832-2.35 1.895 0 1.065.718 1.746 2.35 1.812zm7.133 1.895c0 2.258-1.779 3.436-4.766 3.503v.797h-2.367v-.796c-2.97-.068-4.75-1.246-4.75-3.504s1.78-3.536 4.75-3.602v-.797h2.367v.797c2.991.066 4.766 1.344 4.766 3.602zm-15.044.017c0-1.296-1.029-2.244-2.595-2.244-1.567 0-2.596.948-2.596 2.244 0 1.296 1.012 2.26 2.596 2.26 1.583 0 2.595-.964 2.595-2.26zm2.481 0c0 2.358-1.91 4.183-5.076 4.183-3.167 0-5.093-1.825-5.093-4.183 0-2.358 1.91-4.184 5.109-4.184s5.06 1.826 5.06 4.183z"/></g><g><path fill="#fff" d="M32.615 14.04l.436-1.393-1.42.046a3.306 3.306 0 0 1-1.844-.657h.192c.425 0 .84-.123 1.2-.352.361-.229.652-.555.84-.942l.624-1.357c-.49.004-.979-.025-1.465-.087a2.266 2.266 0 0 1-1.195-.735 2.23 2.23 0 0 0-1.632-.727c-.243 0-.484.04-.714.117.034-.113.061-.226.081-.34a3.13 3.13 0 0 0-.62-2.271l-1.077-1.35-.661 1.578a1.405 1.405 0 0 1-.47.56 2.946 2.946 0 0 0-.783-1.486 3.518 3.518 0 0 0-1.165-.803 3.47 3.47 0 0 0-1.879-.238l-1.29.257c.112-.44.288-.859.523-1.245l.71-1.125-1.787.17-.572-1.245-1.101.61L16.526 0l-1.02 1.025-1.102-.58-.571 1.215-1.788-.207.71 1.129c.236.385.412.805.523 1.245l-1.225-.245h-.04a3.21 3.21 0 0 0-.514-.038 3.466 3.466 0 0 0-1.382.276c-.439.186-.835.46-1.165.803-.405.412-.68.937-.791 1.507a1.384 1.384 0 0 1-.461-.543l-.665-1.59L5.949 5.35a3.152 3.152 0 0 0-.608 2.261c.02.116.048.23.082.34a2.229 2.229 0 0 0-2.346.611c-.31.362-.723.619-1.184.736a8.198 8.198 0 0 1-1.485.087l.608 1.378c.189.387.48.713.84.941.36.23.776.35 1.2.353h.192c-.53.395-1.164.62-1.82.652L0 12.647l.437 1.394c.16.536.468 1.013.887 1.375.42.36.934.591 1.48.663a2.33 2.33 0 0 1-.41 1.001 2.278 2.278 0 0 1-.815.7l-1.093.454.587 1.04c.238.378.566.687.954.9.387.212.821.322 1.262.317.233 0 .465-.026.693-.075.059.254.13.506.213.752.202.546.217 1.146.04 1.701l-.53 1.134 1.187.32c.267.068.541.103.816.103.339 0 .674-.067.987-.195.154.278.342.535.56.763.759.793 1.836 1.196 3.203 1.196h.975l-2.011.85 1.526.768c.614.31 1.243.587 1.885.831l-.184.54.527.245c.873.349 1.8.544 2.738.576h1.252a8.133 8.133 0 0 0 2.726-.58l.51-.242-.18-.54c.65-.252 1.286-.54 1.906-.859l1.497-.738-2.007-.83h.98c1.366 0 2.448-.415 3.202-1.195a3.65 3.65 0 0 0 .56-.764c.132.053.268.096.407.128.19.045.385.067.58.067.275 0 .55-.036.816-.104l1.191-.32-.518-1.111a2.599 2.599 0 0 1 .02-1.744c.085-.252.156-.508.213-.768.23.05.463.074.698.074a2.55 2.55 0 0 0 1.27-.326 2.62 2.62 0 0 0 .95-.919l.579-1.03-1.078-.448a2.27 2.27 0 0 1-.815-.7 2.321 2.321 0 0 1-.409-1 2.833 2.833 0 0 0 1.48-.666c.42-.362.728-.84.887-1.377l-.016.034z"/></g><g><path fill="#fff" d="M3.068 11.019a1.267 1.267 0 0 1-.651-.186 1.3 1.3 0 0 1-.467-.499 3.132 3.132 0 0 0 1.836-1.05 1.208 1.208 0 0 1 .907-.416c.267.006.527.087.75.233-1.143.614-1.38 1.632-2.04 1.86a1.008 1.008 0 0 1-.335.058zm26.56-.054c-.645-.228-.881-1.233-2.04-1.86a1.42 1.42 0 0 1 .755-.232 1.225 1.225 0 0 1 .906.415 3.133 3.133 0 0 0 1.848 1.046 1.29 1.29 0 0 1-.467.498 1.26 1.26 0 0 1-.651.187 1.01 1.01 0 0 1-.339-.058zM16.527 2.826a4.892 4.892 0 0 0-2.35.588 6.293 6.293 0 0 0-.254-.705l.245.029.258.029.11-.236.323-.706.6.316.234.12.184-.187.65-.664.65.664.189.175.232-.12.597-.317.327.707.11.236.258-.03.245-.028c-.1.23-.183.465-.253.705a4.883 4.883 0 0 0-2.355-.576zm-4.201 23.11l.005.016-.008-.004zm.005.016c.595.303 1.215.553 1.852.752l-.448 1.246a11.078 11.078 0 0 1-2.065-.785l.93-.316zm8.385-.016l-.273.9.926.316c-.66.33-1.352.593-2.065.785l-.448-1.245c.639-.2 1.261-.453 1.86-.756zm-4.174 1.506a8.805 8.805 0 0 0 2.102-.274l.57 1.515c-.87.247-1.768.377-2.672.386a10.152 10.152 0 0 1-2.673-.386l.531-1.515a8.786 8.786 0 0 0 2.101.274zM18.7 5.104l-2.178.876-2.18-.875c.184-.449 1.041-.831 2.18-.831 1.138 0 1.995.382 2.178.83z"/></g><g><path fill="#fff" d="M15.788 10.6l-.008.511a.645.645 0 0 1 .539-.183v.785c.002.205-.048.407-.148.585h.78a1.208 1.208 0 0 1-.147-.552v-.784a.654.654 0 0 1 .539.182V10.6h-1.555zm-1.705.046l.008.034-.029-.03a1.966 1.966 0 0 0-.91-.55l.172-.1.673-.413.69-.415 1.848.978 1.84-1.014.689.413.67.414.176.108a1.96 1.96 0 0 0-.91.55l-.029.026c-.057.057-.11.124-.163.19l-.033.041c-.049.071-.097.141-.147.21l-.024.039a4.086 4.086 0 0 0-.164.264 2.433 2.433 0 0 1-.788.916 2.383 2.383 0 0 1-1.125.416 2.407 2.407 0 0 1-1.913-1.332c-.054-.09-.107-.181-.16-.264l-.033-.046-.142-.203-.037-.046c-.053-.061-.106-.127-.159-.186zM7.952 21.704c.405.476.72 1.023.929 1.614a3.748 3.748 0 0 0-.73-1.635c-1.222-1.515-2.403-3.416-2.48-5.57a6.69 6.69 0 0 1 .92-3.765 3.447 3.447 0 0 0-.09 1.907c.15.63.475 1.203.937 1.654 0 0-2.265-2.763.901-5.594 1.263-1.08 2.649-1.745 3.363-2.218-2.577.855-3.835-.087-3.835-.087a3.077 3.077 0 0 0 2.547.612c-.18.087-.367.178-.567.29-2.176 1.2-4.128 3.179-4.462 5.918v-.02c-.505 2.689-1.63 3.378-1.63 3.378.892-.452 1.454-1.66 1.593-2.075.163 2.361 1.283 4.002 2.609 5.583zm.539-.532s1.424.304 1.559 2.433c-.004.543.125 1.08.375 1.561h-.024c-3.305 0-3.22-2.882-3.22-2.882a1.627 1.627 0 0 1-.438.69c-.202.189-.446.32-.712.386a1.327 1.327 0 0 1-.344.04 2.32 2.32 0 0 1-.55-.07 3.598 3.598 0 0 0 0-2.49 5.986 5.986 0 0 1-.331-2.075 1.83 1.83 0 0 1-1.546.69 1.54 1.54 0 0 1-1.302-.706c2.2-.93 1.983-3.931 1.983-3.931-.254.158-.546.24-.844.236h-.056c-1.224 0-1.633-1.319-1.633-1.319H1.4a4.333 4.333 0 0 0 1.836-.48 4.414 4.414 0 0 0 1.465-1.222c.845-1.084 1.531-2.039 2.885-2.412l.135-.025.028-.137c.058-.207-.085-.41-.408-.622-1.856-1.25-.595-2.843-.595-2.843S7.28 7.268 8.48 7.268h.086c.137-.003.273-.017.408-.041l.24-.055a1.84 1.84 0 0 1 .481-1.814c.235-.245.517-.44.83-.572.423-.18.888-.238 1.342-.166-.413.548-.71 1.46-.233 2.025.412.498 1.42.523 1.42 1.246 0 .306-.298.663-.8.979-1.518.971-3.019 2.262-3.648 3.99-.783 2.153.099 3.572 1.359 4.403a1.77 1.77 0 0 1-.967.415h-.339a2.823 2.823 0 0 1-1.832-.578c.103.567.354 1.097.727 1.537.307.362.693.65 1.128.841.433.19.904.279 1.377.258a1.364 1.364 0 0 1-.477 1.021c-.327.223-.7.365-1.09.415zm20.802-2.981a1.852 1.852 0 0 1-.054-.028l.046.032zm-.054-.028c-.215-.163-1.14-.98-1.585-3.349v.021c-.33-2.741-2.286-4.718-4.458-5.923a14.74 14.74 0 0 0-.566-.29 3.072 3.072 0 0 0 2.551-.61s-1.26.942-3.835.086c.713.474 2.098 1.139 3.366 2.218 3.163 2.833.9 5.599.9 5.599a3.41 3.41 0 0 0 .938-1.655 3.454 3.454 0 0 0-.09-1.909 6.744 6.744 0 0 1 .921 3.767c-.085 2.177-1.275 4.062-2.497 5.574a3.772 3.772 0 0 0-.722 1.624 5.08 5.08 0 0 1 .93-1.615c1.324-1.578 2.456-3.22 2.603-5.587.136.406.682 1.58 1.544 2.049zm.726-3.108l.008-.004a1.571 1.571 0 0 1-.846-.237s-.216 3 1.986 3.93a1.536 1.536 0 0 1-1.32.71 1.833 1.833 0 0 1-.862-.144 1.87 1.87 0 0 1-.703-.528c.012.706-.1 1.409-.334 2.075a3.582 3.582 0 0 0 0 2.49 2.358 2.358 0 0 1-.556.07 1.366 1.366 0 0 1-.343-.04 1.6 1.6 0 0 1-.714-.385 1.627 1.627 0 0 1-.438-.69s.086 2.88-3.218 2.88h-.024c.251-.482.38-1.018.376-1.561.155-2.137 1.58-2.432 1.58-2.432a2.508 2.508 0 0 1-1.09-.415 1.384 1.384 0 0 1-.478-1.02c.472.02.942-.069 1.376-.259.435-.191.82-.479 1.128-.841.375-.439.627-.969.73-1.537-.525.401-1.173.605-1.833.577h-.335a1.75 1.75 0 0 1-.968-.415c1.262-.817 2.144-2.249 1.36-4.403-.625-1.728-2.132-3.019-3.651-3.99-.503-.319-.784-.676-.784-.983 0-.739 1.017-.76 1.425-1.245.478-.56.171-1.473-.236-2.025a2.46 2.46 0 0 1 2.172.738 1.84 1.84 0 0 1 .482 1.814l.22.042c.135.025.272.039.409.042h.08c1.198 0 1.716-1.271 1.716-1.271s1.274 1.594-.6 2.839c-.302.208-.445.41-.408.623l.029.136.13.033c1.36.374 2.046 1.33 2.888 2.412.396.509.898.925 1.471 1.219.571.292 1.2.454 1.84.474h.025s-.408 1.321-1.633 1.321z"/></g><g><path fill="#fff" d="M17.953 15.2c-.37.414-1.093 1.12-1.126 1.158l-.045.045-2.285-.037a2.427 2.427 0 0 1-.073.568v.075l2.713.494c.282-.2 1.06-.78 1.363-1.004a1.368 1.368 0 0 1-.192-.988 1.375 1.375 0 0 1-.342-.311zm-4.401 1.685c.177.058.363.088.55.087v-.058c.012-.037.02-.074.029-.112.03-.166.046-.334.049-.503a.706.706 0 0 1-.261-.282.344.344 0 0 0-.335-.232c-.18.015-.354.077-.506.178a.92.92 0 0 0 .09.533.898.898 0 0 0 .37.385zM18.019 6.72a.933.933 0 0 1-.408.618 1.22 1.22 0 0 1-.408.236l-.098.046.008-.515zm.13 2l.523-3.08-1.987.685v3.18l1.464-.785zm-2.191-1.096l-.098-.046a1.22 1.22 0 0 1-.408-.236.914.914 0 0 1-.408-.618l.914.39zm.418 1.889v-3.18l-2.001-.684.528 3.071z"/></g><g><path fill="#fff" d="M14.717 20.283a.098.098 0 0 1-.09-.07c-.004-.012-.005-.026-.004-.04a.1.1 0 0 1 .067-.09.098.098 0 0 1 .04-.005.102.102 0 0 1 0 .204zm4.402 1.577c.303.087.38 1.198.91 1.299a.684.684 0 0 0 .143 0 .403.403 0 0 0 .343-.188s-.27-.415-.47-.717c-.264-.378-.473-.83-.966-.83h-.037a.494.494 0 0 0-.265.09 1.012 1.012 0 0 0-.555-.17 3.81 3.81 0 0 0-.673.145l-1.106-.112a.588.588 0 0 1-.36-.26v-.121a1.34 1.34 0 0 0-.265-.837 1.3 1.3 0 0 0-.722-.483s.03-.174-.037-.24l-.244.298L14 19.32l.57.676-.48.553a.154.154 0 0 0-.03.182l.21.187.264-.162a.12.12 0 0 1 .065 0h.282c.098 0 .2-.025.212-.124-.033.34-.343.933-.139 1.399l.147.385-.975-.14-.457.783a.638.638 0 0 0-.028.698l.17.216c.12-.122.218-.262.295-.415l-.078-.087a.167.167 0 0 1-.02-.216l.285-.486 1.155.278.061-.104a.34.34 0 0 1 .315-.17c.053-.004.106-.004.16 0 .301.062.61.095.917.1a1.292 1.292 0 0 0 .975-.303c.408.63 1.265.73 1.196 1.05l-.225 1.08c.147 0 .29 0 .408-.038l.212-1.121c.025-.12.045-.286.045-.286a2.066 2.066 0 0 1-.408-.478c-.15-.29-.07-.444-.208-.83a.165.165 0 0 1 .14-.086zm-5.418-8.178l-.049 1.785.2.03.49-1.711-.249-.526-.392.423zm4.566-1.281c-.385.426-.911.7-1.482.77a2.385 2.385 0 0 1-.248 0 2.37 2.37 0 0 1-.25 0 1.794 1.794 0 0 1-.244-.036.958.958 0 0 0 .04.606.963.963 0 0 0 .572.481l.094.037v.104c.01.213.09.415.224.577a.948.948 0 0 0 .523.32c.118-.124.224-.236.306-.332a.776.776 0 0 1 .155-.893 1.255 1.255 0 0 0 .595 1.245l.115.055-.033.124a.995.995 0 0 0 .06.733c.113.227.308.4.544.483l.15.058-.065.15a.979.979 0 0 0-.024.71c.08.231.245.422.461.535h1.698v-1.37a1.07 1.07 0 0 1-.614-.301 1.102 1.102 0 0 1-.313-.616.98.98 0 0 1-.644-.374.84.84 0 0 1-.045-.938c.004.278.103.546.281.756.147.155.344.25.555.27h.123v.128a.832.832 0 0 0 .644.756v-2.765c.016-.437.108-.869.274-1.274h-3.452z"/></g><g><path fill="#fff" d="M18.05 24.715zm.408 0s.355-1.062.375-1.095a8.6 8.6 0 0 1-.77-.418c.105.163.362.348.31.49l-.322 1.022zm-5.284-1.84zm.408-.274l-.05-.128a.177.177 0 0 1 .041-.225l.408-.29.69.132a.6.6 0 0 1-.114-.37l-.645-.14-.62.386a.624.624 0 0 0-.196.73l.078.179c.02-.009.384-.165.408-.274z"/></g><g><path fill="#fce527" d="M11.623 18.149h7.624a1.252 1.252 0 0 1-.277-1.246c-.104-.05-.2-.114-.286-.19-.298.223-1.224.896-1.444 1.067l-.05.033-2.993-.54h-.06a2.443 2.443 0 0 1-.295 0 .287.287 0 0 1-.282.233h-.049a.298.298 0 0 1-.192-.122.306.306 0 0 1-.053-.224v-.066c-.189-.139-.334-.33-.416-.55a1.235 1.235 0 0 1-.052-.695v-.054l.045-.033s.057-.042.135-.087l-.217-.034a.15.15 0 0 1-.124-.144.155.155 0 0 1 .061-.128.145.145 0 0 1 .111-.026l.52.083.048-1.855.77-.83.482 1.029-.506 1.784.457.075a.15.15 0 0 1 .096.062.15.15 0 0 1-.024.202.146.146 0 0 1-.096.035h-.025l-.37-.063v.03a.41.41 0 0 0 .18.17l2.278.038.584-.586a1.222 1.222 0 0 1-.554-.397 1.254 1.254 0 0 1-.261-.637 1.203 1.203 0 0 1-.65-.605 1.265 1.265 0 0 1-.052-.83 2.664 2.664 0 0 1-.95-.648H11.35c.163.405.256.837.273 1.275zm9.795.302h-9.782v3.736c0 1.536 1.09 2.49 2.697 2.49 1.347 0 1.702.055 2.198.561a1.631 1.631 0 0 1 1.223-.531v-.058l.31-.971-.526-.586a1.86 1.86 0 0 1-.652.079 5.236 5.236 0 0 1-.978-.104h-.102c-.045 0-.045 0-.057.025l-.061.104-.11.187-.213-.05-.94-.224-.13.216v.025l.112.128-.049.166a1.73 1.73 0 0 1-.362.544l-.236.257-.217-.274-.159-.203a.839.839 0 0 1-.113-.797l-.265.112-.119-.265-.065-.187a.928.928 0 0 1 .298-1.1l.758-.415.721.146c0-.07.045-.324.065-.386h-.04l-.407.157-.409-.282a.216.216 0 0 1 0-.306l.388-.599-.982-1.245 1.471.59.102-.124.204-.25.232.225c.061.061.104.139.122.224.408.165 1.162.65 1.223 1.44l-.233.095a.299.299 0 0 0 .11.096l1.077.107.098-.029c.184-.07.377-.108.574-.112.195.002.388.047.563.133a.835.835 0 0 1 .245-.05h.052c.575 0 .865.44 1.093.789l.118.175c.2.29.465.713.477.73l.119.186-.147.175a.72.72 0 0 1-.572.287c-.065.006-.13.006-.194 0a.83.83 0 0 1-.172-.054c0 .058 0 .128-.032.186l-.168.98a2.297 2.297 0 0 0 1.358-.851c.338-.441.512-.988.489-1.544l-.004-3.753z"/></g><g><path fill="#222220" d="M31.093 18.728c-2.197-.93-1.98-3.93-1.98-3.93.252.159.545.241.842.238h.058c1.223 0 1.631-1.321 1.631-1.321h-.025a4.332 4.332 0 0 1-1.833-.48 4.41 4.41 0 0 1-1.465-1.221c-.844-1.084-1.524-2.039-2.883-2.412l-.134-.025-.029-.137c-.056-.207.086-.411.408-.622 1.872-1.245.6-2.84.6-2.84s-.539 1.274-1.733 1.274h-.09a2.535 2.535 0 0 1-.407-.04l-.221-.047a1.822 1.822 0 0 0-.48-1.813 2.499 2.499 0 0 0-.83-.573 2.452 2.452 0 0 0-1.34-.166c.417.548.713 1.46.237 2.025-.416.502-1.423.523-1.423 1.245 0 .308.302.664.803.98 1.513.971 3.017 2.262 3.645 3.99.779 2.153-.102 3.572-1.358 4.402.272.235.61.38.967.416h.334a2.819 2.819 0 0 0 1.83-.578 3.26 3.26 0 0 1-.73 1.536 3.114 3.114 0 0 1-1.125.843c-.432.19-.902.278-1.374.257a1.363 1.363 0 0 0 .477 1.02c.325.224.698.366 1.09.417 0 0-1.42.302-1.563 2.432a3.322 3.322 0 0 1-.374 1.561h.024c3.298 0 3.213-2.882 3.213-2.882.085.264.236.501.438.69.2.188.445.32.711.386.113.028.227.042.343.04.187 0 .372-.023.554-.07a3.588 3.588 0 0 1 0-2.49 5.977 5.977 0 0 0 .335-2.074c.185.23.421.412.69.533.269.12.562.173.855.155.26.004.515-.06.744-.182a1.56 1.56 0 0 0 .568-.523zm-1.076-3.269l-.114-.079a2.443 2.443 0 0 1-.408-.05c.061.84.363 2.392 1.73 2.97l.408.174-.224.415c-.18.283-.43.515-.724.675-.293.158-.621.24-.953.235a2.517 2.517 0 0 1-1.188-.282c-.057.48-.163.952-.314 1.412a3.186 3.186 0 0 0 0 2.18l.204.44-.465.124c-.213.052-.433.08-.653.08a1.937 1.937 0 0 1-1.252-.466 3.214 3.214 0 0 1-.719 1.246c-.636.67-1.554 1.004-2.754 1.004h-.726l.408-.622c.201-.424.306-.888.306-1.358a3.28 3.28 0 0 1 .959-2.276 1.445 1.445 0 0 1-.339-.224 1.773 1.773 0 0 1-.608-1.345l.029-.37h.363c.416.022.832-.054 1.215-.22.384-.168.725-.422.996-.743.12-.142.228-.295.319-.457a3.816 3.816 0 0 1-1.119.167h-.37a2.167 2.167 0 0 1-1.2-.524l-.38-.353.432-.283c.968-.63 1.963-1.827 1.2-3.927-.493-1.379-1.632-2.604-3.472-3.792-.624-.403-.971-.876-.971-1.328 0-.698.587-.977.995-1.172.192-.075.369-.183.523-.32.322-.386.049-1.104-.253-1.519l-.388-.52.624-.124a2.861 2.861 0 0 1 1.574.194c.361.154.688.378.96.661a2.28 2.28 0 0 1 .636 1.761h.27c.914 0 1.367-.993 1.367-1.03l.257-.619.408.52a2.49 2.49 0 0 1 .49 1.777c-.069.347-.21.675-.414.961a2.448 2.448 0 0 1-.769.7 1.302 1.302 0 0 0-.163.124c1.289.428 2.011 1.363 2.77 2.347l.111.137c.357.463.811.843 1.33 1.111a3.936 3.936 0 0 0 1.668.438h.559l-.167.544c-.02.066-.518 1.606-2.004 1.606zM14.168 2.724l-.24-.017c.099.23.183.466.253.706a5.079 5.079 0 0 1 4.696 0c.07-.24.154-.476.253-.706l-.244.03-.258.028-.11-.236-.326-.705-.596.315-.232.12-.188-.186-.648-.669-.65.669-.187.174-.233-.12-.6-.316-.322.705-.11.237-.257-.029zm2.359.466h.001zm0 0a4.198 4.198 0 0 0-2.579.8 5.24 5.24 0 0 0-.665-1.74l.926.109.482-1.05.934.49.902-.909.902.909.934-.49.482 1.05.926-.108a5.26 5.26 0 0 0-.665 1.74 4.19 4.19 0 0 0-2.579-.801zm2.808 24.776a11.044 11.044 0 0 0 2.065-.788l-.926-.318.273-.917c-.598.304-1.22.558-1.86.759l.448 1.25zm-2.802 1.085l.02.017a10.108 10.108 0 0 0 2.672-.387l-.551-1.519a8.837 8.837 0 0 1-2.101.275h-.045a8.803 8.803 0 0 1-2.102-.275l-.55 1.52c.866.24 1.759.365 2.656.37zm-4.848-1.893l.017-.005-.013-.007zm.017-.005c.654.326 1.338.587 2.044.778l.446-1.246a11.82 11.82 0 0 1-1.853-.755l.272.913zm9.719-.273l.616.237c-.84.445-1.717.814-2.62 1.104l.213.598a7.997 7.997 0 0 1-3.09.544h-.024a8.005 8.005 0 0 1-3.089-.544l.216-.598c-.903-.29-1.782-.66-2.623-1.104l.612-.237.567-.22-.159-.593-.168-.648c.77.401 1.578.726 2.412.968.408.116.706.174.706.174v.415c.502.083 1.01.127 1.518.132h.045a9.981 9.981 0 0 0 1.518-.132v-.419s.293-.054.701-.17a13.217 13.217 0 0 0 2.412-.968l-.172.648-.155.593zm-6.667-6.806a.102.102 0 0 1 .102.103.102.102 0 0 1-.102.102.099.099 0 0 1-.039-.01.103.103 0 0 1-.056-.1.1.1 0 0 1 .067-.091.096.096 0 0 1 .04-.005z"/></g><g><path fill="#222220" d="M10.417 25.17l.02.017a3.33 3.33 0 0 1-.374-1.561c-.155-2.138-1.58-2.432-1.58-2.432a2.52 2.52 0 0 0 1.09-.415 1.385 1.385 0 0 0 .477-1.02 3.07 3.07 0 0 1-1.376-.26 3.14 3.14 0 0 1-1.128-.84 3.287 3.287 0 0 1-.726-1.537c.525.401 1.172.605 1.831.578h.338c.357-.037.695-.182.968-.417-1.257-.816-2.138-2.248-1.359-4.403.624-1.727 2.13-3.018 3.646-3.988.501-.32.783-.677.783-.984 0-.739-1.011-.76-1.42-1.245-.477-.56-.174-1.474.233-2.025a2.455 2.455 0 0 0-2.17.738 1.835 1.835 0 0 0-.482 1.815l-.22.045c-.135.025-.27.04-.408.042h-.057C7.3 7.278 6.77 6.004 6.77 6.004s-1.272 1.594.6 2.838c.302.209.444.412.408.624l-.03.136-.134.025c-1.357.374-2.043 1.328-2.883 2.412-.394.51-.895.926-1.468 1.22a4.327 4.327 0 0 1-1.836.478h-.024s.408 1.319 1.631 1.319h.045c.298.004.59-.078.845-.236 0 0 .216 3-1.983 3.93.143.221.338.402.57.527.23.124.487.187.748.183h.02c.293.018.585-.035.855-.155s.506-.303.691-.534a5.989 5.989 0 0 0 .33 2.075 3.6 3.6 0 0 1 0 2.49c.18.046.365.07.55.07.116.002.232-.012.344-.04.266-.065.51-.198.711-.386.202-.189.353-.426.438-.69 0 0-.08 2.88 3.218 2.88zm.35-.231l.367.68h-.725c-1.197-.003-2.114-.337-2.754-1.003a3.19 3.19 0 0 1-.718-1.246c-.349.3-.793.464-1.252.465a2.813 2.813 0 0 1-.653-.08l-.465-.123.204-.44a3.186 3.186 0 0 0 0-2.18 7.309 7.309 0 0 1-.314-1.411c-.366.19-.772.286-1.182.282a1.937 1.937 0 0 1-.954-.234 1.98 1.98 0 0 1-.722-.674l-.225-.416.408-.174c1.37-.576 1.672-2.137 1.734-2.968a2.55 2.55 0 0 1-.408.05h-.074c-1.488 0-2.002-1.54-2.002-1.606l-.172-.543h.559a3.934 3.934 0 0 0 1.669-.437 4.006 4.006 0 0 0 1.333-1.112l.11-.14c.759-.985 1.48-1.93 2.769-2.346a1.15 1.15 0 0 0-.163-.124 2.444 2.444 0 0 1-1.178-1.66 2.522 2.522 0 0 1 .484-1.778l.408-.518.257.617c.017.042.449 1.031 1.366 1.031h.245a2.286 2.286 0 0 1 .657-1.764c.277-.281.61-.503.976-.65A2.85 2.85 0 0 1 11.5 4.23c.146 0 .292.011.437.034l.627.124-.407.519c-.306.398-.58 1.134-.253 1.519.154.136.33.244.522.319.42.196.995.474.995 1.17 0 .454-.343.914-.966 1.33-1.857 1.187-2.994 2.42-3.488 3.784-.762 2.1.23 3.297 1.2 3.927l.432.282-.38.354a2.166 2.166 0 0 1-1.203.522h-.37a3.71 3.71 0 0 1-1.118-.166c.092.162.198.315.318.457a2.689 2.689 0 0 0 2.207.962h.366l.024.37a1.769 1.769 0 0 1-.607 1.345c-.101.091-.215.166-.338.223a3.284 3.284 0 0 1 .963 2.276c.003.469.107.932.305 1.357zm16.898-10.123c.505 2.69 1.631 3.378 1.631 3.378-.897-.452-1.46-1.66-1.598-2.075-.16 2.361-1.28 4.001-2.606 5.582a5.081 5.081 0 0 0-.929 1.615 3.769 3.769 0 0 1 .726-1.636c1.223-1.515 2.41-3.415 2.499-5.59a6.736 6.736 0 0 0-.921-3.765c.207.614.238 1.277.087 1.908a3.406 3.406 0 0 1-.94 1.653s2.263-2.764-.9-5.595c-1.268-1.078-2.654-1.743-3.368-2.216 2.577.855 3.836-.087 3.836-.087a3.083 3.083 0 0 1-2.552.61c.18.087.367.178.567.29 2.173 1.2 4.126 3.18 4.46 5.92zm.69-5.944a1.406 1.406 0 0 0-.751.233c1.14.614 1.372 1.63 2.029 1.859.11.038.223.058.338.058.228-.002.451-.066.646-.186.196-.121.356-.293.465-.498a3.12 3.12 0 0 1-1.838-1.046 1.201 1.201 0 0 0-.901-.417zm-.954.594l-.568-.315.528-.379c.292-.193.631-.297.98-.303a1.62 1.62 0 0 1 1.182.536c.407.483.967.81 1.586.925l.573.033-.236.54c-.139.278-.35.512-.61.675-.26.163-.56.25-.865.251a1.412 1.412 0 0 1-.46-.075 2.195 2.195 0 0 1-.951-.83A3.678 3.678 0 0 0 27.4 9.466z"/></g><g><path fill="#222220" d="M17.604 7.332a.91.91 0 0 0 .408-.613l-.905.383v.506l.093-.045c.15-.051.289-.13.408-.235zm-2.153 0c.12.104.258.184.408.235l.098.045v-.51l-.906-.382a.92.92 0 0 0 .408.612zm.331 3.23v.54a.656.656 0 0 1 .542-.182v.78a1.172 1.172 0 0 1-.147.55h.771a1.191 1.191 0 0 1-.147-.55v-.78a.65.65 0 0 1 .539.183v-.541zM5.669 16.101a6.686 6.686 0 0 1 .923-3.764 3.441 3.441 0 0 0-.088 1.908c.15.63.477 1.205.94 1.653 0 0-2.268-2.765.902-5.595 1.27-1.08 2.652-1.743 3.367-2.216C9.133 8.94 7.873 8 7.873 8c.356.282.77.483 1.21.588.44.106.897.113 1.34.021-.18.087-.367.183-.567.29-2.175 1.204-4.142 3.184-4.464 5.924v-.02C4.886 17.49 3.76 18.18 3.76 18.18c.893-.448 1.46-1.66 1.595-2.075.151 2.365 1.286 4.005 2.612 5.583.405.474.72 1.022.93 1.614a3.765 3.765 0 0 0-.734-1.627C6.938 20.16 5.755 18.259 5.669 16.1zM3.8 9.285a1.225 1.225 0 0 1 .906-.413c.267.005.527.086.751.231-1.155.624-1.395 1.625-2.04 1.852a.984.984 0 0 1-.335.058 1.268 1.268 0 0 1-1.126-.686 3.135 3.135 0 0 0 1.849-1.042zm-.726 2.127c.157 0 .313-.025.461-.075.392-.175.724-.463.955-.828.306-.43.701-.79 1.159-1.055l.571-.31-.53-.377a1.843 1.843 0 0 0-.98-.303 1.613 1.613 0 0 0-1.187.54c-.41.481-.97.807-1.587.922l-.576.03.233.537c.14.275.351.507.612.669.26.162.56.25.865.25h.004z"/></g><g><path fill="#222220" d="M16.53 5.999l-2.179-.89c.184-.447 1.04-.83 2.18-.83 1.138 0 1.994.383 2.178.83l-2.179.889zm1.632 2.741l-1.465.786V6.334l1.988-.685-.523 3.092zm1.586 1.246l.167.1a1.973 1.973 0 0 0-.911.552l-.03.025c-.056.062-.11.125-.163.191l-.033.041c-.05.067-.1.137-.147.212l-.024.037c-.057.083-.11.175-.163.266a2.438 2.438 0 0 1-.79.919 2.389 2.389 0 0 1-1.127.417 2.388 2.388 0 0 1-1.128-.418 2.44 2.44 0 0 1-.789-.918l-.16-.266-.032-.045-.13-.216-.037-.046a3.754 3.754 0 0 0-.16-.186l-.029-.03a1.972 1.972 0 0 0-.911-.55l.172-.1.674-.416.691-.415 1.843 1.016 1.843-.983.703.398zm1.964 2.417a3.701 3.701 0 0 0-.273 1.27v2.794a.814.814 0 0 1-.447-.268.836.836 0 0 1-.198-.486v-.128h-.122a.869.869 0 0 1-.555-.27 1.192 1.192 0 0 1-.282-.754.838.838 0 0 0 .045.936.98.98 0 0 0 .645.373 1.1 1.1 0 0 0 .313.615c.167.165.382.27.613.3v1.368h-1.714a.956.956 0 0 1-.461-.533.975.975 0 0 1 .025-.71l.065-.15-.15-.057a.968.968 0 0 1-.545-.483.991.991 0 0 1-.06-.731l.033-.124-.114-.054a1.236 1.236 0 0 1-.484-.53 1.26 1.26 0 0 1-.112-.714.767.767 0 0 0-.139.875c-.1.113-.201.223-.306.331a.949.949 0 0 1-.532-.323.975.975 0 0 1-.223-.589v-.103l-.094-.037a.94.94 0 0 1-.57-.48.958.958 0 0 1-.042-.606c.162.037.328.05.494.038a2.339 2.339 0 0 0 1.73-.787l3.46.016zm-2.121 12.198zm.187-1.005c0-.058.02-.128.029-.186a.833.833 0 0 0 .171.054c.065.006.13.006.196 0a.708.708 0 0 0 .571-.287l.147-.175-.122-.17s-.274-.44-.478-.73l-.114-.174c-.229-.349-.518-.789-1.093-.789h-.053a.821.821 0 0 0-.245.05 1.297 1.297 0 0 0-.564-.133 1.72 1.72 0 0 0-.575.112l-.098.03-1.077-.109a.292.292 0 0 1-.11-.095l.232-.096c-.065-.793-.816-1.278-1.224-1.44a.45.45 0 0 0-.122-.224l-.233-.224-.204.249-.102.125-1.51-.631.984 1.244-.388.599a.214.214 0 0 0-.063.153.22.22 0 0 0 .063.154l.408.282.408-.158h.041c0 .062-.045.315-.065.386l-.71-.125-.76.416a.927.927 0 0 0-.29 1.128l.087.187.118.266.265-.112a.843.843 0 0 0 .115.797l.159.207.212.274.237-.257a1.73 1.73 0 0 0 .363-.544l.049-.166-.114-.128v-.025l.13-.216.943.224.212.05.114-.19.061-.105c0-.02 0-.024.057-.024h.102c.322.065.648.1.976.103.22.013.441-.014.653-.08l.522.607-.31.97v.06a1.609 1.609 0 0 0-1.224.53c-.502-.505-.857-.56-2.2-.56-1.611 0-2.7-.958-2.7-2.49v-3.736h9.792v3.736a2.372 2.372 0 0 1-.495 1.544 2.3 2.3 0 0 1-1.36.847zm-6.23-1.116l.048.128c-.032.112-.408.274-.408.274l-.081-.183a.624.624 0 0 1 .196-.73l.616-.381.657.14a.6.6 0 0 0 .114.37l-.69-.133-.408.29a.178.178 0 0 0-.036.225zm5.708 2.179c-.135 0-.278.03-.408.037l.224-1.08c.066-.32-.78-.414-1.195-1.05a1.307 1.307 0 0 1-.976.303 4.897 4.897 0 0 1-.918-.1.98.98 0 0 0-.159 0 .33.33 0 0 0-.314.171l-.061.105-1.163-.288-.277.49a.172.172 0 0 0 .02.217l.077.087a1.662 1.662 0 0 1-.293.415l-.172-.216a.638.638 0 0 1 .029-.697l.457-.785.975.15-.15-.353c-.199-.451.087-1.023.134-1.368-.02.077-.114.094-.208.094h-.282a.116.116 0 0 0-.065 0l-.265.161-.209-.195a.157.157 0 0 1 .029-.182l.481-.553-.57-.676.815.415.245-.299c.065.067.037.24.037.24a1.3 1.3 0 0 1 .722.485c.18.24.273.535.265.836v.121c.082.13.21.224.36.26l1.105.112a3.79 3.79 0 0 1 .673-.145c.198.001.39.06.555.17a.488.488 0 0 1 .266-.09h.036c.494 0 .702.456.967.83.2.286.47.717.47.717a.41.41 0 0 1-.343.188.697.697 0 0 1-.143 0c-.53-.1-.608-1.212-.91-1.3h-.049a.161.161 0 0 0-.139.088c.14.377.058.53.209.83.11.178.248.34.408.477 0 0-.02.166-.045.286l-.033-.03zm-.788.046h-.016v-.001h.016zm-.408-.001l.306-1.016c.05-.141-.204-.324-.31-.486.25.152.508.29.771.415 0 .032-.362 1.05-.375 1.087zm-4.358-11.005l.409-.412.248.524-.485 1.703-.216-.066zm.237 2.323a.71.71 0 0 0 .261.282c-.003.168-.02.336-.049.502 0 .037 0 .074-.028.112v.058a1.729 1.729 0 0 1-.551-.087.894.894 0 0 1-.37-.386.913.913 0 0 1-.087-.53 1.06 1.06 0 0 1 .49-.197.34.34 0 0 1 .334.233zm3.183 1.482l-2.714-.483v-.074c.047-.186.072-.377.074-.568l2.285.037.045-.046c.036-.037.759-.747 1.126-1.158.096.123.212.228.343.311a1.36 1.36 0 0 0 .19.986 87.72 87.72 0 0 1-1.349.995zm1.35-.995l.013-.01-.013.012v-.002zm-2.74-3.46c-.075.276-.056.569.054.831.132.278.364.495.648.606.027.233.117.454.261.636.144.183.337.32.555.397-.245.253-.486.49-.584.586l-2.278-.037a.41.41 0 0 1-.18-.17v-.03l.372.063h.024a.15.15 0 0 0 .12-.237.15.15 0 0 0-.095-.063l-.457-.075.506-1.784-.482-1.03-.769.83-.05 1.856-.517-.083a.145.145 0 0 0-.15.07.155.155 0 0 0 .005.167.15.15 0 0 0 .096.061l.216.034a.855.855 0 0 0-.135.087l-.044.033v.054a1.235 1.235 0 0 0 .469 1.245v.067a.308.308 0 0 0 .052.224.297.297 0 0 0 .192.12h.05a.28.28 0 0 0 .179-.065.296.296 0 0 0 .1-.167c.098.005.194.005.29 0h.061l2.988.552.049-.033c.236-.17 1.145-.83 1.443-1.067.086.076.181.14.284.19a1.268 1.268 0 0 0 .278 1.246H11.63v-4.487a3.793 3.793 0 0 0-.274-1.274h3.428c.266.283.59.504.948.648zm.639-6.72v3.18l-1.465-.789-.526-3.075zm2.865-1.066c0-.776-1.286-1.473-2.702-1.473s-2.701.697-2.701 1.473l.029.19.567 3.321-.567.337-1.482.854s-.33.175-.485.279c-.56.415-.678.97-.355 1.211.04-.273.177-.522.385-.7.208-.176.474-.27.745-.262a1.464 1.464 0 0 1 1.172.647c.08.1.153.206.22.315.085.143.17.267.257.387H10.54a4.2 4.2 0 0 1 .543 1.826v8.538c0 2.075 1.563 3.05 3.264 3.05 1.306 0 1.481-.062 2.2.669.718-.731.893-.669 2.199-.669 1.69 0 3.264-.984 3.264-3.05v-8.53c.04-.643.225-1.268.543-1.826h-3.82c.086-.12.172-.244.258-.386a3.64 3.64 0 0 1 .22-.316 1.462 1.462 0 0 1 1.175-.646c.272-.01.537.085.745.262.209.178.346.426.385.7.327-.237.209-.83-.355-1.211-.15-.109-.481-.279-.481-.279l-1.469-.88-.567-.337.567-3.32.024-.174z"/></g></g></g></svg>